<?xml version="1.0" encoding="UTF-8"?>
<svg width="120px" height="120px" viewBox="0 0 120 120" version="1.1" xmlns="http://www.w3.org/2000/svg" xmlns:xlink="http://www.w3.org/1999/xlink">
    <g id="angular" stroke="none" stroke-width="1" fill="none" fill-rule="evenodd">
        <g id="angularjs-plain" transform="translate(16.000000, 13.000000)" fill="#FFB944" fill-rule="nonzero">
            <path d="M36.1639696,47.5 L53.5905849,47.5 L44.3270813,27.9815082 L36.1639696,47.5 Z M44.3577725,1.356618e-14 L0,15.7297456 L7.00882299,74.2897466 L44.4049321,95 L81.9934227,74.0099089 L89,15.4514165 L44.3577725,1.356618e-14 Z M32.5558817,55.797075 L27.1175501,69.50686 L16.9512759,69.5490996 L44.3547782,8.39286849 L44.3023786,8.27746372 L44.2544704,8.27746372 L44.2552189,8.17714454 L44.3023786,8.27746372 L44.4079264,8.27746372 L44.5,8.07079112 L44.5,8.27746372 L44.4071778,8.27746372 L44.3555268,8.39286849 L72.9425118,69.8040461 L63.1557606,69.5875679 L57.1357932,55.573054 L44.2806702,55.6349049 L32.5558817,55.797075 Z" id="Shape"></path>
        </g>
    </g>
</svg>