<?xml version="1.0" encoding="UTF-8"?>
<svg width="120px" height="120px" viewBox="0 0 120 120" version="1.1" xmlns="http://www.w3.org/2000/svg" xmlns:xlink="http://www.w3.org/1999/xlink">
    <g id="apache" stroke="none" stroke-width="1" fill="none" fill-rule="evenodd">
        <path d="M110,69.4509804 L109.764846,69.0588235 L109.608076,68.9803922 L109.608076,68.6666667 L109.529691,68.3529412 L109.372922,68.1176471 L109.059382,67.9607843 L108.980998,67.9607843 L108.902613,67.8039216 L108.667458,67.6470588 L108.432304,67.4901961 L108.118765,67.4117647 L107.961995,67.4117647 L107.648456,67.0980392 L107.256532,66.8627451 L106.786223,66.627451 L106.315914,66.4705882 L106.159145,66.4705882 L105.767221,66 L105.296912,65.6862745 L104.826603,65.4509804 L104.356295,65.2941176 L104.27791,65.2941176 L103.807601,64.9803922 L103.180523,64.745098 L102.788599,64.6666667 L102.396675,64.3529412 L102.004751,64.1960784 L101.612827,64.1176471 L101.220903,64.0392157 L100.828979,64.0392157 L100.35867,64.1176471 L100.280285,64.1176471 L99.9667458,63.6470588 L99.4964371,63.3333333 L98.8693587,63.1764706 L98.1638955,63.1764706 L97.3800475,63.3333333 L97.0665083,63.4117647 L96.4394299,63.1764706 L95.8123515,63.0196078 L93.7743468,63.0196078 L92.9904988,62.7058824 L92.2850356,62.4705882 L91.5795724,62.3921569 L91.1092637,62.3921569 L90.4821853,61.7647059 L89.7767221,61.2941176 L89.1496437,60.9803922 L88.5225653,60.8235294 L87.8954869,60.8235294 L87.5819477,61.0588235 L87.1900238,60.745098 L86.719715,60.5098039 L86.1710214,60.4313725 L85.7007126,60.5098039 L85.152019,60.2745098 L84.6033254,60.1176471 L83.8194774,60.1176471 L82.9572447,59.8039216 L82.0166271,59.5686275 L81.1543943,59.4901961 L80.9976247,59.4901961 L80.0570071,58.9411765 L79.1163895,58.7058824 L78.2541568,58.7058824 L78.3325416,58.7058824 L77,58.3921569 L76.1377672,58.3137255 L75.7458432,58.3137255 L75.1971496,57.7647059 L74.5700713,57.372549 L73.8646081,57.2156863 L73.1591449,57.2941176 L72.6888361,57.4509804 L72.0617577,57.372549 L70.6508314,57.372549 L70.6508314,57.2156863 L69.5534442,56.9803922 L68.456057,56.8235294 L67.4370546,56.745098 L67.0451306,56.8235294 L67.0451306,56.745098 L66.2612827,56.6666667 L65.4774347,56.5882353 L65.3990499,56.5882353 L64.5368171,56.1960784 L63.6745843,55.9607843 L62.8907363,55.8823529 L62.263658,55.8823529 L61.4014252,55.5686275 L60.695962,55.4117647 L59.912114,55.4117647 L59.0498812,54.7843137 L58.3444181,54.5490196 L57.7957245,54.4705882 L57.1686461,54.1568627 L56.2280285,54 L55.3657957,54 L54.5035629,53.6078431 L53.719715,53.4509804 L53.2494062,53.4509804 L52.3087886,52.9803922 L51.5249406,52.745098 L50.7410926,52.6666667 L50.5059382,52.745098 L50.584323,52.745098 L49.4869359,52.1176471 L48.6247031,51.8039216 L47.8408551,51.7254902 L47.7624703,51.7254902 L47.2137767,51.3333333 L46.7434679,51.0980392 L46.2731591,50.9411765 L45.7244656,50.8627451 L45.175772,50.9411765 L44.5486936,50.4705882 L44,50.2352941 L43.2945368,50.1568627 L42.6674584,50.1568627 L41.9619952,50.3137255 L41.8052257,50.3921569 L41.0213777,50 L40.2375297,49.7647059 L39.5320665,49.7647059 L38.9049881,49.372549 L38.3562945,49.1372549 L37.7292162,49.1372549 L37.1805226,49.2156863 L36.631829,49.372549 L36.5534442,49.372549 L36.0047506,48.8235294 L35.5344418,48.5098039 L34.9857482,48.4313725 L34.4370546,48.5098039 L33.9667458,48.745098 L33.8099762,48.6666667 L33.5748219,48.5098039 L33.3396675,48.4313725 L33.1045131,48.3529412 L32.5558195,48.3529412 L32.3206651,48.4313725 L31.9287411,48.6666667 L31.8503563,48.745098 L31.1448931,48.5882353 L30.5178147,48.5882353 L29.9691211,48.745098 L29.4988124,49.1372549 L29.1852732,49.5294118 L28.9501188,50.0784314 L28.7149644,50.7058824 L28.5581948,51.3333333 L28.47981,51.9607843 L28.4014252,53.2156863 L28.47981,54.627451 L28.47981,54.8627451 C28.087886,54.7058824 27.695962,54.5490196 27.2256532,54.3921569 L27.2256532,54.0784314 L27.304038,53.6078431 L27.3824228,52.5882353 L27.4608076,51.6470588 L27.3824228,50.7058824 L27.304038,50.2352941 L27.2256532,49.8431373 L27.1472684,49.4509804 L26.9904988,49.0588235 L26.8337292,48.745098 L26.5985748,48.4313725 L26.3634204,48.1176471 L25.8931116,47.7254902 L26.0498812,48.4313725 L26.128266,48.9019608 L26.2066508,49.372549 L26.2850356,49.7647059 L26.3634204,50.2352941 L26.4418052,50.627451 L26.4418052,50.7058824 L26.4418052,50.627451 L26.3634204,50.3921569 L26.2850356,50.1568627 L26.128266,49.6862745 L25.8931116,48.9019608 L25.8147268,48.6666667 L25.6579572,47.6470588 L25.6579572,47.3333333 L25.736342,46.7843137 L25.8147268,46.5490196 L25.9714964,46 L25.8147268,46 L25.4228029,46.4705882 L25.1876485,47.0196078 L24.9524941,47.5686275 L24.8741093,48.0392157 L24.8741093,49.1372549 L24.9524941,49.6862745 L25.0308789,50.2352941 L24.9524941,50.1568627 L24.7173397,49.8431373 L24.4821853,49.5294118 L24.3254157,49.1372549 L24.1686461,48.745098 L24.0118765,48.3529412 L23.9334917,47.8039216 L23.8551069,47.0196078 L23.3064133,47.4901961 L23.0712589,47.9607843 L22.9144893,48.4313725 L22.9144893,48.9019608 L22.9928741,49.372549 L23.1496437,49.8431373 L23.3847981,50.3137255 L23.4631829,50.4705882 L23.3064133,50.627451 L22.8361045,50.5490196 L22.7577197,50.7058824 L23.0712589,50.8627451 L23.3847981,51.0980392 L24.1686461,51.7254902 L24.4038005,51.9607843 L24.7957245,52.4313725 L25.1876485,52.8235294 L25.5795724,53.2156863 L25.8931116,53.5294118 L26.128266,53.8431373 L26.2850356,54 C21.8171021,52.1960784 17.1140143,50.0784314 11.3135392,47.3333333 L11,47.1764706 L11.1567696,47.4901961 C11.9406176,48.8235294 14.2137767,50.1568627 16.1733967,51.4117647 C17.1140143,51.9607843 17.976247,52.5098039 18.6033254,52.9803922 C20.4845606,54 22.9928741,55.0980392 25.1876485,55.9607843 L25.0308789,55.9607843 L23.4631829,56.2745098 L22.3657957,56.5098039 L21.2684086,56.9019608 L20.719715,57.1372549 L20.1710214,57.2941176 L19.7007126,57.6078431 L19.3087886,57.9215686 L18.9168646,58.3137255 L18.6033254,58.7058824 L18.368171,59.1764706 L18.2114014,59.7254902 L18.368171,59.8039216 L18.5249406,59.6470588 L18.9168646,59.254902 L19.0736342,59.0980392 L19.543943,58.7843137 L19.7790974,58.627451 L20.0142518,58.4705882 L20.4845606,58.2352941 L20.7980998,58.1568627 L21.0332542,58.0784314 L21.5819477,57.9215686 L22.1306413,57.8431373 L22.6009501,57.6862745 L23.6199525,57.1372549 L24.0902613,56.8235294 L24.5605701,56.5098039 L24.9524941,56.2745098 L25.2660333,56.1176471 L25.5011876,56.0392157 L25.9714964,56.1960784 L24.0902613,57.1372549 L23.0712589,57.7647059 L22.5225653,58.1568627 L22.0522565,58.5490196 L21.5819477,58.9411765 L21.1900238,59.4117647 L20.9548694,59.8039216 L20.7980998,60.2745098 L20.719715,60.745098 L20.7980998,61.2941176 L21.111639,62 L21.5035629,61.2156863 L21.8171021,60.745098 L22.1306413,60.3529412 L22.4441805,60.0392157 L22.7577197,59.8039216 L23.4631829,59.3333333 L23.7767221,59.1764706 L23.6983373,59.4901961 L23.5415677,60.1176471 L23.5415677,60.8235294 L23.6199525,61.6078431 L23.8551069,62.4705882 L24.0118765,62.4705882 L24.1686461,61.6078431 L24.4038005,60.8235294 L24.5605701,60.4313725 L24.8741093,59.7254902 L25.2660333,59.0196078 L25.8931116,57.9215686 L26.7553444,56.5098039 C27.0688836,56.6666667 27.3824228,56.745098 27.695962,56.8235294 L27.6175772,56.9803922 L27.0688836,58.0784314 L26.7553444,58.5490196 L26.52019,59.0980392 L26.4418052,59.6470588 L26.2850356,60.1960784 L26.2066508,60.745098 L26.2066508,61.2941176 L26.2850356,61.7647059 L26.52019,62.2352941 L26.912114,62.627451 L27.4608076,62.9411765 L28.087886,63.1764706 L28.3230404,63.6470588 L28.6365796,64.0392157 L28.9501188,64.3529412 L29.263658,64.5882353 L29.5771971,64.745098 L29.8907363,64.8235294 L30.6745843,64.8235294 L30.6745843,64.9019608 L30.9881235,65.372549 L31.4584323,65.7647059 L32.0071259,66 L32.6342043,66 L33.2612827,65.8431373 L33.4180523,66 L33.888361,66.4705882 L34.3586698,66.7843137 L34.9073634,67.0196078 L35.5344418,67.0980392 L36.0047506,67.0980392 L36.4750594,67.4117647 L37.023753,67.6470588 L37.6508314,67.8039216 L38.1211401,68.1960784 L38.7482185,68.5098039 L39.5320665,68.6666667 L40.3942993,68.745098 L40.5510689,68.745098 L41.0997625,69.2156863 L41.7268409,69.5294118 L42.2755344,69.7647059 L42.9026128,69.8431373 L43.608076,69.6862745 L43.9216152,69.8431373 L44.391924,70.0784314 L44.8622328,70.1568627 L45.3325416,70.1568627 L45.8028504,70.0784314 L46.0380048,70.2352941 L46.8218527,70.4705882 L47.6840855,70.5490196 L48.7030879,70.4705882 L49.0166271,70.627451 L49.7220903,70.8627451 L50.5059382,70.9411765 L51.6033254,70.8627451 L51.6817102,70.8627451 L52.3871734,71.0980392 L53.1710214,71.1764706 L54.0332542,71.0980392 L54.3467933,71.3333333 L55.1306413,71.6470588 L55.9144893,71.7254902 L56.7767221,71.6470588 L56.7767221,71.5686275 L57.2470309,71.7254902 L58.0308789,71.7254902 L58.8931116,71.5686275 L59.4418052,71.7254902 L60.0688836,71.7254902 L60.695962,71.6470588 L61.5581948,71.8039216 L61.7933492,71.9607843 L62.5771971,72.1960784 L63.3610451,72.3529412 L64.2232779,72.4313725 L65.0855107,72.3529412 L65.0855107,72.2745098 L65.5558195,72.4313725 L66.2612827,72.5098039 L66.9667458,72.5882353 L66.9667458,72.5098039 L67.4370546,72.6666667 L68.3776722,72.9803922 L69.3966746,73.2156863 L70.4940618,72.9803922 L70.4940618,72.9019608 L70.6508314,72.9019608 L71.3562945,73.0588235 L71.9833729,73.1372549 L72.6888361,73.1372549 L72.7672209,73.2156863 L73.3942993,73.6862745 L74.0213777,74 L75.04038,74 L75.6674584,73.6862745 L76.216152,73.2156863 L76.9216152,73.2941176 L77.783848,73.2156863 L78.7244656,73.2156863 L78.7244656,73.2941176 L78.95962,73.4509804 L79.8218527,73.6078431 L80.6840855,73.5294118 L81.5463183,73.1372549 L82.3301663,73.1372549 L83.2707838,73.2156863 L84.0546318,73.1372549 L84.5249406,73.2156863 L85.6223278,73.2156863 L86.327791,73.1372549 L86.719715,73.2941176 L87.1900238,73.372549 L87.6603325,73.2941176 L88.1306413,73.0588235 L88.2090261,73.1372549 L88.8361045,73.2156863 L90.7957245,73.2156863 L91.4228029,72.9803922 L92.2850356,72.6666667 L93.5391924,72.6666667 L94.1662708,72.5882353 L94.5581948,72.745098 L95.1852732,72.9019608 L95.8123515,72.9803922 L96.4394299,72.9019608 L97.1448931,72.745098 L97.3016627,72.8235294 L98.0071259,73.1372549 L98.6342043,73.372549 L99.2612827,73.372549 L99.7315914,73.1372549 L100.123515,72.745098 L100.35867,72.8235294 L100.750594,72.9019608 L101.142518,72.9803922 L101.534442,72.9803922 L101.926366,72.9019608 L102.31829,72.745098 L102.866983,72.8235294 L103.494062,72.745098 L104.042755,72.5098039 L104.591449,72.5098039 L105.061758,72.4313725 L105.532067,72.1960784 L105.92399,71.8823529 L106.002375,71.8039216 L106.472684,71.8823529 L106.942993,71.8039216 L107.334917,71.8823529 L108.04038,71.8823529 L108.353919,71.6470588 L108.589074,71.4901961 L108.667458,71.3333333 L108.745843,71.3333333 L108.980998,71.254902 L109.216152,71.0980392 L109.372922,70.7058824 L109.451306,70.2352941 L109.608076,70.2352941 L109.84323,70.1568627 L109.921615,69.9215686 L110,70 L110,69.4509804 Z M26.128266,56.6666667 L26.2850356,56.2745098 L26.52019,56.3529412 L26.3634204,56.5098039 L26.128266,56.6666667 Z M26.5985748,51.3333333 L26.6769596,51.7254902 L26.7553444,52.1176471 L26.8337292,52.5098039 L27.0688836,53.7647059 L27.2256532,54.3137255 L26.912114,54.1568627 L26.9904988,54.1568627 L26.8337292,54.0784314 L26.4418052,53.7647059 L26.4418052,51.8823529 L26.52019,51.254902 L26.5985748,51.3333333 Z" id="Shape" fill="#FFB944" fill-rule="nonzero"></path>
    </g>
</svg>