<?xml version="1.0" encoding="UTF-8"?>
<svg width="120px" height="120px" viewBox="0 0 120 120" version="1.1" xmlns="http://www.w3.org/2000/svg" xmlns:xlink="http://www.w3.org/1999/xlink">
    <g id="aws" stroke="none" stroke-width="1" fill="none" fill-rule="evenodd">
        <path d="M37.5099817,72.1880425 L27.6151027,76.4376085 L36.7800174,80.3556112 L47.4048606,76.4376085 L37.5099817,72.1880425 Z M22.6346803,77.5 L22.3031151,96.624783 L36.7800174,103 L36.7800174,83.1443888 L22.6346803,77.5 Z M52.3852831,77.5 L39.3023435,82.4812621 L39.3023435,101.207648 L52.3852831,95.8948228 L52.3852831,77.5 Z M67.9905488,18 L58.0297039,22.249566 L67.2605844,26.1684366 L77.8854277,22.249566 L67.9905488,18 Z M54.1776449,23.6443888 L54.1776449,42.7691719 L66.5297521,46.3556112 L66.9281512,28.9563464 L54.1776449,23.6443888 Z M81.8034526,24.7067804 L70.1153438,29.6871745 L70.1153438,48.4803942 L81.8034526,43.1675687 L81.8034526,24.7067804 Z M21.2068666,44.91739 L11.3128556,49.167824 L20.4769023,53.0858266 L31.1017456,49.167824 L21.2068666,44.91739 Z M6.33156524,50.2302155 L6,69.3549985 L20.4769023,75.7302155 L20.4769023,55.8746043 L6.33156524,50.2302155 Z M36.0813,50.2302155 L23.0000964,55.2106096 L23.0000964,73.9361278 L36.0813,68.6241703 L36.0813,50.2302155 Z M53.0822644,44.209129 L43.1873855,48.459563 L52.3514322,52.3775656 L62.9762754,48.459563 L53.0822644,44.209129 Z M38.207831,49.5219545 L37.8753978,68.6476054 L52.3523001,75.0228224 L52.3523001,55.1663433 L38.207831,49.5219545 Z M67.9575658,49.5219545 L54.8754943,54.5023486 L54.8754943,73.2296028 L67.9575658,67.9167773 L67.9575658,49.5219545 Z M99.1246986,18 L89.2306876,22.249566 L98.3956023,26.1684366 L109.020446,22.249566 L99.1246986,18 Z M84.2502652,23.3128255 L83.9187,42.4376085 L98.3956023,48.8119575 L98.3956023,28.9563464 L84.2502652,23.3128255 Z M114,23.3128255 L100.918796,28.2932196 L100.918796,47.0196058 L114,41.7076483 L114,23.3128255 Z" id="Shape" fill="#FFB944" fill-rule="nonzero"></path>
    </g>
</svg>