<?xml version="1.0" encoding="UTF-8"?>
<svg width="120px" height="120px" viewBox="0 0 120 120" version="1.1" xmlns="http://www.w3.org/2000/svg" xmlns:xlink="http://www.w3.org/1999/xlink">
    <g id="css" stroke="none" stroke-width="1" fill="none" fill-rule="evenodd">
        <g id="css3-plain" transform="translate(18.000000, 13.000000)" fill="#FFB944" fill-rule="nonzero">
            <path d="M0,0 L7.55399167,85.4744825 L41.4496651,95 L75.4399982,85.4396515 L83,0 L0,0 Z M67.3067795,19.5825861 L64.7922882,48.0569172 L64.7998009,48.2106278 L64.7892831,48.5642381 L64.7892831,48.5612093 L63.0027697,68.4709038 L62.8059377,70.2397121 L41.5,76.1791524 L41.5,76.1799096 L41.4834721,76.1942963 L20.2143465,70.2215394 L18.7741673,53.7608697 L29.2040098,53.7608697 L29.944008,62.1309071 L41.5030051,65.2884117 L41.5,65.2944693 L41.5,65.2929549 L53.1018193,62.0907758 L54.3278874,48.4605023 L30.0747285,48.4605023 L29.8666274,46.1563569 L29.3925778,40.7583112 L29.1439084,37.8597674 L55.2496923,37.8597674 L56.199294,27.2590325 L16.4377263,27.2590325 L16.2296253,24.9564015 L15.7563269,19.5568415 L15.5069062,16.6582977 L67.555449,16.6582977 L67.3067795,19.5825861 Z" id="Shape"></path>
        </g>
    </g>
</svg>