<?xml version="1.0" encoding="UTF-8"?>
<svg width="120px" height="120px" viewBox="0 0 120 120" version="1.1" xmlns="http://www.w3.org/2000/svg" xmlns:xlink="http://www.w3.org/1999/xlink">
    <g id="docker" stroke="none" stroke-width="1" fill="none" fill-rule="evenodd">
        <g id="docker-plain" transform="translate(8.000000, 27.000000)" fill="#FFB944" fill-rule="nonzero">
            <path d="M103.655357,23.4166667 C100.041629,21.3333333 95.2513382,21.0833333 91.2174091,22.25 C90.713168,17.9166667 87.8558016,14.1666667 84.4941941,11.5 L83.1495511,10.4166667 L81.9729884,11.75 C79.7039034,14.3333333 79.0315819,18.6666667 79.3677426,22 C79.6198632,24.4166667 80.3762249,26.9166667 81.8889483,28.9166667 C80.7123856,29.5833333 79.4517828,30.5 78.2752202,30.9166667 C75.9220949,31.75 73.3168491,32.5833333 70.7956434,32.5833333 L65.1649508,32.5833333 L65.1649508,20.8333333 L54.2397263,20.8333333 L54.2397263,0 L41.6336981,0 L41.6336981,10 L20.6236511,10 L20.6236511,20.8333333 L9.69842662,20.8333333 L9.69842662,32.5 L0.285925543,32.5 L0.117845167,33.75 C-0.302355774,39.0833333 0.369965731,44.25 2.63905081,49.1666667 L3.56349288,51 L3.64753307,51.1666667 C10.2867079,62.3333333 21.8842539,67 34.5743223,67 C59.1140573,67 79.3677426,56.0833333 88.6121633,33.1666667 C94.8311372,33.5 101.218192,31.6666667 104.243638,25.75 L105,24.25 L103.655357,23.4166667 Z M22.3044548,12.5 L30.7084737,12.5 L30.7084737,21.6666667 L22.3044548,21.6666667 L22.3044548,12.5 Z M33.3137195,49.3333333 C33.3137195,50.75 32.1371569,51.9166667 30.7084737,51.9166667 C29.2797905,51.9166667 28.1032278,50.75 28.1032278,49.3333333 C28.1032278,47.9166667 29.2797905,46.75 30.7084737,46.75 C32.1371569,46.8333333 33.3137195,47.9166667 33.3137195,49.3333333 Z M22.3044548,23.3333333 L30.7084737,23.3333333 L30.7084737,32.5 L22.3044548,32.5 L22.3044548,23.3333333 Z M11.3792304,23.3333333 L20.6236511,23.3333333 L20.6236511,32.5 L11.3792304,32.5 L11.3792304,23.3333333 Z M34.6583625,65.1666667 C21.3800128,65.0833333 14.2365968,60.6666667 8.35378361,54.8333333 C10.1186276,54.9166667 11.7994313,55 13.3121547,55 C14.6567977,55 16.0014407,55 17.2620436,54.9166667 C20.5396109,54.75 23.3969773,54.3333333 25.7501026,53.6666667 C27.6830269,58.0833333 31.2127148,62.1666667 37.5157289,65.1666667 L34.6583625,65.1666667 Z M41.6336981,32.5 L32.3892774,32.5 L32.3892774,23.3333333 L41.6336981,23.3333333 L41.6336981,32.5 Z M41.6336981,21.6666667 L32.3892774,21.6666667 L32.3892774,12.5 L41.6336981,12.5 L41.6336981,21.6666667 Z M52.5589226,32.5 L43.3145019,32.5 L43.3145019,23.3333333 L52.5589226,23.3333333 L52.5589226,32.5 Z M52.5589226,21.6666667 L43.3145019,21.6666667 L43.3145019,12.5 L52.5589226,12.5 L52.5589226,21.6666667 Z M52.5589226,10.8333333 L43.3145019,10.8333333 L43.3145019,1.66666667 L52.5589226,1.66666667 L52.5589226,10.8333333 Z M63.484147,32.5 L54.2397263,32.5 L54.2397263,23.3333333 L63.484147,23.3333333 L63.484147,32.5 Z M31.3807952,47.6666667 C31.2127148,47.5833333 30.9605942,47.5 30.7084737,47.5 C29.6999914,47.5 28.8595895,48.3333333 28.8595895,49.3333333 C28.8595895,50.3333333 29.6999914,51.1666667 30.7084737,51.1666667 C31.7169559,51.1666667 32.5573578,50.3333333 32.5573578,49.3333333 C32.5573578,49.0833333 32.4733176,48.8333333 32.3892774,48.6666667 C32.221197,48.9166667 32.0531167,49.0833333 31.7169559,49.0833333 C31.296755,49.0833333 30.9605942,48.75 30.9605942,48.3333333 C31.0446344,48 31.2127148,47.75 31.3807952,47.6666667 Z" id="Shape"></path>
        </g>
    </g>
</svg>