<?xml version="1.0" encoding="UTF-8"?>
<svg width="120px" height="120px" viewBox="0 0 120 120" version="1.1" xmlns="http://www.w3.org/2000/svg" xmlns:xlink="http://www.w3.org/1999/xlink">
    <g id="firebase" stroke="none" stroke-width="1" fill="none" fill-rule="evenodd">
        <path d="M28.2802344,75.0395717 L37.6760938,14.826932 C37.8188222,13.9094009 38.5314427,13.1860155 39.4457164,13.0305775 C40.35999,12.8751394 41.2711166,13.3224673 41.7082813,14.1414093 L51.8103125,33.033766 L28.2802344,75.0395717 Z M95,89.6514602 L86.0569532,34.237479 C85.9218557,33.4416179 85.3546597,32.7877008 84.5866041,32.5423222 C83.8185485,32.2969437 82.977946,32.5010968 82.4075001,33.0715507 L26,89.6514602 L57.2117187,107.178169 C59.1716591,108.273944 61.5588097,108.273944 63.51875,107.178169 L95,89.6514602 Z M69.6371094,41.2924248 L62.4082812,27.5118 C62.0354793,26.802229 61.300707,26.3579435 60.5000001,26.3579435 C59.6992931,26.3579435 58.9645208,26.802229 58.5917188,27.5118 L26.8517188,84.1888701 L69.6371094,41.2924248 Z" id="icon" fill="#FFB944" fill-rule="nonzero"></path>
    </g>
</svg>