<?xml version="1.0" encoding="UTF-8"?>
<svg width="120px" height="120px" viewBox="0 0 120 120" version="1.1" xmlns="http://www.w3.org/2000/svg" xmlns:xlink="http://www.w3.org/1999/xlink">
    <g id="git" stroke="none" stroke-width="1" fill="none" fill-rule="evenodd">
        <g id="git-plain" transform="translate(13.000000, 13.000000)" fill="#FFB944">
            <path d="M92.2289819,42.813212 L51.1956478,1.77263653 C48.834167,-0.590878844 45.0015998,-0.590878844 42.6363967,1.77263653 L34.1173473,10.295887 L44.9256632,21.1066987 C47.4382728,20.2585437 50.3179095,20.8274554 52.3198079,22.8298161 C54.332129,24.8448358 54.897187,27.7497109 54.0268935,30.2710918 L64.4436145,40.6917075 C66.9636688,39.8227023 69.8723402,40.3841675 71.8839168,42.4006765 C74.6980395,45.2132151 74.6980395,49.7726999 71.8839168,52.5867278 C69.069794,55.4015004 64.5128508,55.4015004 61.6972391,52.5867278 C59.5814358,50.4689466 59.0580685,47.3600377 60.1301152,44.7522775 L50.4161804,35.035355 L50.4146915,60.6073403 C51.1010992,60.9461556 51.7480496,61.398902 52.3198079,61.9685584 C55.1331862,64.781097 55.1331862,69.3390925 52.3198079,72.1575883 C49.5064297,74.9701269 44.9465085,74.9701269 42.1361082,72.1575883 C39.3234744,69.3398371 39.0926866,64.7818417 41.9045759,61.9685584 C42.5999173,61.273801 43.2855805,60.7488236 44.0300575,60.3973494 L44.0300575,34.5885657 C43.2855805,34.2370914 42.6006618,33.7158373 41.9038314,33.016612 C39.7738829,30.8869164 39.3755878,27.7593913 40.4684799,25.141206 L29.87234,14.4830474 L1.76535847,42.6233265 C-0.598355735,44.9890758 -0.583466197,48.822528 1.78024801,51.186788 L42.8202825,92.2273635 C45.1825077,94.5908788 49.0180528,94.5908788 51.3840004,92.2273635 L92.226004,51.3774181 C94.5897182,49.0124135 94.5919517,45.1767273 92.2289819,42.813212 Z" id="Path"></path>
        </g>
    </g>
</svg>