<?xml version="1.0" encoding="UTF-8"?>
<svg width="120px" height="120px" viewBox="0 0 120 120" version="1.1" xmlns="http://www.w3.org/2000/svg" xmlns:xlink="http://www.w3.org/1999/xlink">
    <g id="html" stroke="none" stroke-width="1" fill="none" fill-rule="evenodd">
        <g id="html5-plain" transform="translate(18.000000, 13.000000)" fill="#FFB944" fill-rule="nonzero">
            <path d="M0,0 L7.6446296,85.5369335 L41.9488066,95 L76.3477296,85.5476168 L84,0 L0,0 Z M68.0994761,20.2516186 L67.6203973,25.7244927 L67.409511,28.2342924 L27.1691893,28.2342924 L28.1296391,38.9175382 L66.4528817,38.9175382 L66.1961505,41.5662201 L63.7258769,69.1282311 L63.5440256,70.8604431 L42,76.7736196 L42,76.7751458 L41.9740212,76.7888814 L20.4445132,71.1244719 L18.9828264,54.9424069 L29.5386043,54.9424069 L30.2866395,63.2745755 L41.9671445,66.3887416 L42,66.3887416 L42,65.972095 L53.7324625,63.0151252 L54.9580483,49.600784 L18.5129166,49.600784 L15.9280309,20.5141212 L15.6766482,17.5510466 L68.3516228,17.5510466 L68.0994761,20.2516186 Z" id="Shape"></path>
        </g>
    </g>
</svg>