<?xml version="1.0" encoding="UTF-8"?>
<svg width="120px" height="120px" viewBox="0 0 120 120" version="1.1" xmlns="http://www.w3.org/2000/svg" xmlns:xlink="http://www.w3.org/1999/xlink">
    <g id="jquery" stroke="none" stroke-width="1" fill="none" fill-rule="evenodd">
        <g id="jquery-plain" transform="translate(11.000000, 13.000000)" fill="#FFB944" fill-rule="nonzero">
            <path d="M50.0096705,80.6256087 C49.3582821,80.4791321 48.7249879,80.276258 48.0893336,80.0890498 L47.6102327,79.9441398 C46.988739,79.7545817 46.3727522,79.5548408 45.7599121,79.3449171 L45.5058077,79.2532713 C44.9566905,79.0613633 44.4138669,78.8584892 43.87419,78.6509154 L43.4163301,78.4715402 C42.824731,78.2389008 42.2362787,77.9960786 41.6556934,77.7422901 L41.3040381,77.5871972 C40.804483,77.3616075 40.3104349,77.1344512 39.8179601,76.8986786 L39.3884214,76.6934546 C39.0021512,76.5062465 38.6198146,76.3072889 38.2390513,76.1114644 C37.9841602,75.9775206 37.7245489,75.8514096 37.4720179,75.7119827 C37.006291,75.4636773 36.5492178,75.2059724 36.0945046,74.9427844 L35.6295644,74.6842962 C35.0245914,74.3302456 34.4266987,73.962879 33.8358863,73.5900294 L33.3520652,73.2688773 C32.9225265,72.9939399 32.4961346,72.7135193 32.0752496,72.4236992 L31.6638051,72.136229 C31.2578674,71.8503253 30.8566499,71.5612885 30.4570058,71.2675519 L29.9228359,70.8649369 C29.5578067,70.5868662 29.1935642,70.3064457 28.8340418,70.0174089 L28.3486474,69.6296765 C27.8915741,69.254477 27.4392211,68.8784941 26.992375,68.4915451 L26.8444752,68.3670007 C26.3614409,67.9448033 25.8870602,67.5116397 25.4189732,67.0769095 L25.0177557,66.6923104 C24.6708206,66.3633254 24.3293924,66.0319905 23.9934711,65.6920393 L23.5922536,65.2933408 C23.165075,64.8578273 22.7457634,64.4168308 22.3343189,63.9695678 L22.2729562,63.9037708 C21.8379106,63.4306591 21.4138788,62.9473644 20.997714,62.45937 L20.6641528,62.064588 C20.3534059,61.6925216 20.0465926,61.3157554 19.7460728,60.9350728 L19.4101515,60.5183585 C19.0490558,60.0515131 18.6958271,59.5870176 18.3504654,59.1131225 C8.79204922,46.1307475 5.35731301,28.2261302 12.9977523,13.522067 L6.22347072,22.0764605 C-2.45305372,34.4925113 -1.37291336,50.648025 5.25504189,63.8418903 C5.41238207,64.1583426 5.57837597,64.4693117 5.74043635,64.7802809 L6.05118322,65.3748038 L6.24392494,65.7171049 L6.58928665,66.3327768 C6.79540229,66.693877 7.00623813,67.0534106 7.22258089,67.4129442 L7.58288991,68.0051172 C7.82204699,68.3897164 8.06671097,68.7696157 8.31766857,69.1487318 L8.63077553,69.6296765 C8.97535054,70.1427365 9.32936595,70.6550131 9.69439518,71.1578902 L9.72507651,71.1970551 L9.90444432,71.4383108 C10.2191247,71.8714744 10.5448189,72.2991549 10.8736599,72.7221356 L11.2379024,73.1842812 C11.5313418,73.5516478 11.8295015,73.9166645 12.1339547,74.2801146 L12.4761696,74.6874294 C12.8836807,75.1652409 13.2998455,75.6407026 13.7238773,76.1067647 L13.7490517,76.1326135 L13.7978272,76.1858777 C14.2116319,76.6362739 14.6364504,77.0764871 15.0659891,77.5167004 L15.4727134,77.9247985 C15.8054879,78.2584833 16.1437693,78.586685 16.4851975,78.9133201 L16.8990022,79.3049689 C17.3552887,79.7334327 17.8162955,80.1532802 18.2867426,80.5637282 L18.3087702,80.5809607 L18.5502874,80.7861847 C18.9640921,81.1433684 19.3857638,81.4982023 19.811369,81.8459864 L20.3337384,82.2603509 C20.6806735,82.5376382 21.0315421,82.8102258 21.3847708,83.0781136 L21.9464753,83.5034442 C22.3358923,83.7893479 22.7292427,84.0705517 23.12574,84.3454892 L23.5552787,84.6486254 L23.6732838,84.7324382 C24.0493269,84.9901431 24.4340236,85.2384485 24.8187204,85.4867538 L25.3143419,85.8157388 C25.9035809,86.1870219 26.5022603,86.5543885 27.1064466,86.9092223 L27.6020682,87.187293 C28.0465542,87.442648 28.4941871,87.6933033 28.9481135,87.9384754 C29.1935642,88.0700694 29.4453085,88.1946137 29.6923326,88.3207247 C30.0125198,88.4875671 30.330347,88.6567593 30.6560412,88.818902 L30.8786775,88.9262137 L31.2728147,89.1157718 C31.77709,89.3554608 32.2852988,89.5912334 32.7990145,89.8183897 L33.1215619,89.9625165 C33.7100141,90.2186548 34.3031866,90.4646103 34.901866,90.6995996 L35.3353382,90.8695752 C35.8891757,91.0818488 36.4508802,91.2917726 37.0149447,91.4891636 L37.2257806,91.5620103 C37.8441275,91.7774171 38.4695547,91.977158 39.0989154,92.1721991 L39.5512685,92.3069263 C40.191643,92.4988342 40.8241506,92.7283404 41.4849793,92.8497516 C83.4468197,100.468888 95.6359637,67.7427125 95.6359637,67.7427125 C85.397838,81.0227406 67.2266201,84.5256476 50.0096705,80.6256087 Z M34.893999,46.7628687 C35.8341066,48.1046576 36.8764854,49.7010181 38.1234063,50.7788357 C38.5757593,51.2746631 39.0485666,51.758741 39.531601,52.2342027 L39.9029238,52.5984361 C40.3717975,53.0511821 40.8485383,53.4960952 41.3410131,53.9284755 L41.3992289,53.9786065 L41.4133896,53.9927059 C41.9585733,54.4689508 42.5210644,54.9256134 43.092996,55.3767928 L43.4737593,55.6728793 C44.0472642,56.1107427 44.631783,56.5399898 45.2304624,56.9504377 L45.281598,56.9888193 C45.5459295,57.1705444 45.8157679,57.3397367 46.0840329,57.5151953 L46.4632228,57.7650673 C46.8911881,58.0384382 47.325447,58.3047593 47.7659995,58.5601144 L47.9500875,58.6666429 C48.330064,58.8843996 48.7155475,59.0990231 49.1010309,59.3073803 L49.5109021,59.519654 C49.7775937,59.6582977 50.0442853,59.8000745 50.3164839,59.9348017 L50.4384225,59.9896326 C50.9906865,60.2606535 51.5484575,60.5222749 52.1188157,60.7690137 L52.4901385,60.9209734 C52.9448516,61.1136647 53.4050717,61.3016561 53.8668651,61.4771148 L54.4568908,61.6925216 C54.8762024,61.8476145 55.2970874,61.9886081 55.7219059,62.130385 L56.2938374,62.3128933 C56.8972371,62.4993182 57.4935564,62.7350908 58.1221304,62.8392693 C90.5208344,68.1837091 98,43.3461244 98,43.3461244 C91.2579731,53.0143671 78.2003113,57.6279902 64.2670513,54.0263877 C63.6479176,53.8642451 63.0382244,53.6887864 62.431678,53.4984451 L61.8809874,53.3206365 C61.4498753,53.1819928 61.02191,53.0347329 60.5970915,52.8804232 L60.0180796,52.6657997 C59.5531394,52.4872078 59.0929193,52.3039162 58.6366328,52.111225 L58.2645233,51.9545654 C57.6925917,51.7070434 57.1293138,51.445422 56.5746897,51.1720511 C56.2883305,51.0334074 56.0074783,50.8869308 55.7266261,50.742804 L55.2372981,50.4921488 C54.8769891,50.2978909 54.5182535,50.0958001 54.1650248,49.8890096 L53.9085603,49.7440995 C53.4695811,49.4895278 53.038469,49.2263398 52.6105037,48.9545355 L52.2187267,48.6944807 C51.9370878,48.5127556 51.6546621,48.3271141 51.3777434,48.1406893 C50.7806374,47.7302413 50.2000521,47.3009942 49.6265472,46.8654807 L49.23241,46.5560781 C43.1339045,41.7622966 38.2996273,35.2092286 36.0008872,27.7796506 C33.592009,20.075135 34.1120183,11.4259626 38.28468,4.40604919 L33.1577501,11.6123874 C26.8822369,20.6030777 27.2236651,32.6392291 32.1185182,42.1476791 C32.9390472,43.7440396 33.8618474,45.2910525 34.893999,46.7628687 Z M69.0423259,35.6408256 C69.3090175,35.7387378 69.5757091,35.8264672 69.8463342,35.918113 L70.2011363,36.0301245 C70.5818995,36.1491858 70.9610894,36.2878295 71.3552266,36.3622427 C89.2440188,39.8040525 94.0971767,27.2219427 95.3881529,25.3694438 C91.1376079,31.462716 83.9951502,32.9251327 75.2305153,30.8070959 C74.5382185,30.6402535 73.776692,30.3911649 73.1095696,30.1553923 C72.253639,29.8514728 71.4102956,29.5052553 70.59134,29.1143897 C69.0344588,28.3694737 67.5515276,27.4663315 66.1763744,26.4323786 C58.3337529,20.506732 53.4617141,9.20453049 58.5792036,0 L55.8100164,3.79977682 C52.1109487,9.22019644 51.7474928,15.9518563 54.3144979,21.9378168 C57.0215358,28.2919272 62.568564,33.2760501 69.0423259,35.6408256 Z" id="Shape"></path>
        </g>
    </g>
</svg>