<?xml version="1.0" encoding="UTF-8"?>
<svg width="120px" height="120px" viewBox="0 0 120 120" version="1.1" xmlns="http://www.w3.org/2000/svg" xmlns:xlink="http://www.w3.org/1999/xlink">
    <g id="javascript" stroke="none" stroke-width="1" fill="none" fill-rule="evenodd">
        <g id="javascript-original" transform="translate(13.000000, 13.000000)">
            <path d="M4,0 L91,0 C93.209139,-4.05812251e-16 95,1.790861 95,4 L95,91 C95,93.209139 93.209139,95 91,95 L4,95 C1.790861,95 2.705415e-16,93.209139 0,91 L0,4 C-2.705415e-16,1.790861 1.790861,4.05812251e-16 4,0 Z" id="Path" fill="#FFB944"></path>
            <path d="M86.7408227,71.9716506 C86.0395131,67.6782605 83.1914467,64.0719933 74.7550824,60.7093013 C71.824419,59.3854245 68.5572494,58.4374356 67.5836757,56.2542794 C67.237992,54.9837787 67.1921048,54.2680884 67.4108339,53.499022 C68.0387239,51.0031273 71.0695744,50.2250396 73.47177,50.9407299 C75.0189339,51.4504337 76.4835008,52.6224518 77.3668297,54.4921175 C81.4982085,51.8624067 81.4897959,51.8796975 84.374572,50.0724291 C83.3184013,48.4628777 82.7547534,47.7201235 82.063386,47.0314971 C79.5785934,44.3033036 76.1928818,42.8982351 70.7781906,43.005739 L67.9576565,43.364336 C65.2548996,44.0356715 62.6790973,45.4302152 61.1686432,47.2998809 C56.6365161,52.3548197 57.9290059,61.2017142 63.4438842,64.8425632 C68.8769303,68.8510304 76.8582464,69.7629341 77.8777073,73.511287 C78.8696359,78.1001249 74.4468733,79.5856333 70.0508782,79.0578869 C66.8112409,78.3955726 65.009403,76.7769999 63.0614908,73.8337987 C59.4761698,75.8733657 59.4761698,75.8733657 55.789897,77.9572875 C56.6640484,79.8359746 57.5825574,80.6862327 59.0478891,82.3138268 C65.9829767,89.2286582 83.337521,88.8888557 86.4502037,78.4226366 C86.5763935,78.0632879 87.4146,75.6666274 86.7408227,71.9716506 Z M50.883789,43.5597976 L41.9288992,43.5597976 L41.8921895,66.3175468 C41.8921895,71.1574777 42.1468635,75.594457 41.3461316,76.9544189 C40.0360517,79.6292363 36.6411626,79.2977033 35.0939987,78.7789782 C33.5193025,78.0181813 32.7185706,76.9363763 31.7908841,75.4072649 C31.5362101,74.968228 31.3450134,74.6284254 31.2807713,74.6021133 L24,78.9849647 C25.2106577,81.4274834 26.9941407,83.5474904 29.2785592,84.9247432 C32.6910383,86.9379981 37.2774653,87.5552058 42.0742087,86.4726491 C45.1960689,85.5787879 47.8896483,83.7271648 49.2999153,80.9087583 C51.3388372,77.2137815 50.9013791,72.7414688 50.8830242,67.7947857 C50.9289114,59.7244753 50.883789,51.6556684 50.883789,43.5597976 Z" id="Shape" fill="black" fill-rule="nonzero"></path>
        </g>
    </g>
</svg>