<?xml version="1.0" encoding="UTF-8"?>
<svg width="120px" height="120px" viewBox="0 0 120 120" version="1.1" xmlns="http://www.w3.org/2000/svg" xmlns:xlink="http://www.w3.org/1999/xlink">
    <g id="laravel" stroke="none" stroke-width="1" fill="none" fill-rule="evenodd">
        <g id="laravel-plain" transform="translate(13.000000, 13.000000)" fill="#FFB944">
            <path d="M12.0352616,7.10542736e-15 C11.1840165,0.066729991 10.3478777,0.0561138561 9.52382412,0.282844166 C7.72087637,0.779527622 6.11884362,1.57346286 4.70564075,2.79735155 C3.87478926,3.51621555 3.1496825,4.2911934 2.53409707,5.204181 C1.58390508,6.61385206 0.936596234,8.12892617 0.61180883,9.83433242 C0.741723792,10.0625793 0.878436629,10.3022007 1.02345798,10.5456135 C1.9441925,12.0910194 2.86568235,13.6258092 3.78868283,15.1696985 L6.2147692,19.219754 C6.96102491,20.4679081 7.70576998,21.7168206 8.45051505,22.9649747 L11.9310275,28.7947494 C12.7218471,30.1202497 13.5134219,31.4465082 14.3049968,32.7712502 C15.4583698,34.7011119 16.614764,36.629457 17.7666263,38.5600769 L22.0032136,45.6660627 C23.2245653,47.7127018 24.448183,49.7578244 25.6718006,51.802947 L25.8349497,52.0410517 C26.0124498,52.0979239 26.1536945,52.049393 26.3002265,52.0145114 C27.9120784,51.6262642 29.5239303,51.2402918 31.1357822,50.8535612 C33.7499432,50.2264509 36.3641041,49.6016156 38.978265,48.973747 L43.0728523,47.9902379 C45.7157154,47.356303 48.3593338,46.7238847 51.0021968,46.0884332 C53.6737621,45.4469153 56.344572,44.8023643 59.0168925,44.1600881 C60.3674039,43.8347794 61.7179152,43.5109873 63.0691819,43.1871952 C65.6833428,42.5608432 68.2975037,41.9360079 70.9116647,41.3111725 L79.4528181,39.2690831 L79.9143183,39.1439644 L79.78818,38.8929686 L77.4572638,35.5852843 L75.1550499,32.3132398 L72.6927082,28.822048 L70.3391325,25.4756906 L68.0067057,22.1687646 L65.598747,18.7511275 C64.8124594,17.6364333 64.0246611,16.5232557 63.2376181,15.4093198 L61.9936068,13.6455249 C61.8032663,13.3748134 61.6514471,13.0828697 61.5502343,12.7666605 C61.3040001,12.0000239 61.584979,11.4896912 62.0306175,11.1128184 C62.3191496,10.867889 62.6514902,10.688173 63.0110223,10.5820116 C63.5117991,10.434144 64.0171079,10.2923428 64.5292145,10.195281 C65.5556938,10.0003991 66.5889709,9.83509072 67.6192268,9.66295767 L71.1118244,9.09120298 C71.8482609,8.96911742 72.5839422,8.84096551 73.3203787,8.71584678 C74.3211771,8.54598862 75.3219755,8.37537216 76.3235292,8.20778889 C77.2956255,8.04399709 78.2677217,7.88172189 79.239818,7.72096327 L82.4219792,7.19849778 L84.6305336,6.82617476 C85.4704489,6.68513182 86.3096089,6.54484718 87.1487689,6.40683743 C88.1956418,6.23546268 89.2417594,6.06257134 90.2886323,5.89802125 C90.9125262,5.80020115 91.5364201,5.76607786 92.1557822,5.94503556 C92.6203037,6.07925384 93.0432826,6.2976429 93.4368041,6.57669559 L93.9813895,6.95811815 C94.0357725,6.83224112 93.9572193,6.76399454 93.9209639,6.69195648 C93.1354316,5.09574477 92.0643885,3.72323018 90.7033027,2.58047908 C89.4381424,1.517349 88.0173864,0.735546491 86.4463217,0.237346445 C85.518034,-0.0576304468 84.5640654,0.079621012 83.5927245,0.00606636282 M41.3076705,95 C41.2608407,95 41.2192981,94.6587671 41.1664258,94.5685299 C40.0334464,92.6272938 38.888382,90.5434982 37.7689984,88.5954375 C36.3588169,86.1400771 34.9614757,83.6771338 33.5716877,81.2096407 C32.0874848,78.5722895 30.6161224,75.9273553 29.1432493,73.2839377 C27.7428868,70.7709469 26.3470563,68.2556812 24.9519811,65.7404155 C24.1097998,64.2200334 23.2729058,62.696618 22.4314798,61.1754775 L22.2079052,60.82742 L21.798522,60.9085576 C20.9888195,61.1186054 20.1806276,61.3301698 19.3724356,61.5440091 C18.2470095,61.8412608 17.1223387,62.1438207 15.9961573,62.4387976 C13.4681028,63.0992728 10.9400483,63.7559566 8.41199375,64.414157 C5.84088603,65.0844901 3.16176761,65.7563397 0.589904563,66.4236397 C0.433553418,66.4638293 0.755319543,66.4774786 0,66.504019 L0,82.5381742 C0.311191652,83.0356159 0.28173419,82.8013027 0.301372498,82.9650945 C0.361042742,83.4397874 0.457723643,83.9182717 0.540808793,84.3884148 C0.852000445,86.1400771 1.55218166,87.7438718 2.56430985,89.2043486 C4.04851275,91.3472913 6.025184,92.8790479 8.44673845,93.816301 C9.31157933,94.1499509 10.2141862,94.3850225 11.1371867,94.4987668 L12.0745382,94.7474876" id="Shape"></path>
            <path d="M2.99649433,57.6838014 C5.96510378,56.9739618 8.93446688,56.2648798 11.9030763,55.5565554 C13.206883,55.2459532 14.5114433,54.9391389 15.8152499,54.6270216 C16.4671532,54.4709629 17.1205638,54.32248 17.7671916,54.1467246 C18.3429767,53.9906659 18.4138194,53.7990017 18.1176368,53.2770385 C17.6895661,52.5225025 17.2539591,51.7725119 16.8206129,51.0202486 L13.0041523,44.4142709 L9.18919904,37.8075356 C7.89518979,35.5666546 6.59967326,33.3257736 5.30491036,31.0856502 C4.1962979,29.1690076 3.08768543,27.252365 1.97982661,25.3357224 C1.5005081,24.5069449 0.918693811,23.6758947 0.437114364,22.8478748 C0.347430555,22.6971191 0.753645456,22.5168183 0,22.4365163 L0,58.3421265 C0,58.3178844 0.341401391,58.2974301 0.456709146,58.2694001 L2.99649433,57.6838014 Z M94.3744986,83.348631 C93.21087,83.7645349 92.0464877,84.183469 90.8836128,84.6024032 C88.234549,85.5569366 85.5854853,86.5114701 82.9364215,87.4667612 C81.4645519,87.9978151 79.9956969,88.5349296 78.5230737,89.0637108 C75.5220575,90.1402125 72.519534,91.2129263 69.5177641,92.2871552 C67.7783504,92.9098747 66.0381831,93.679562 64.299523,94.3053117 C63.8232191,94.4772793 63.353698,95 62.8819159,95 L82.845984,95 L83.2755619,94.7522758 C83.783519,94.7303064 84.2831859,94.5787932 84.7820992,94.4871276 C86.8312612,94.1106172 88.6663879,93.2197193 90.2920011,91.9174629 C91.5407916,90.9167179 92.5567057,89.6932484 93.3525553,88.2978113 C94.1710143,86.8614657 94.6571156,85.3076973 94.8907457,83.6758996 C94.9110941,83.5349923 94.9548056,83.3751458 94.8372369,83.2296931 C94.6714349,83.2168145 94.5252276,83.2948438 94.3744986,83.348631 Z M92.6599551,56.4012418 C91.7796973,55.1906509 90.8971784,53.9823327 90.0184278,52.7709843 C88.8058123,51.0990355 87.5954577,49.4255717 86.3843494,47.7528654 C85.892219,47.074086 85.3933057,46.4006096 84.9132335,45.7142546 C84.7685336,45.507439 84.6034852,45.4521367 84.3781452,45.5134995 L84.2492719,45.5506203 C82.0199886,46.0953104 79.7899517,46.6384854 77.5599148,47.1816604 L73.5640866,48.1566482 C70.9587342,48.7922463 68.3526283,49.4286019 65.7472759,50.0649576 C63.1705621,50.6944952 60.5938483,51.3247903 58.0163808,51.9528127 L49.981013,53.9088488 C47.3455148,54.5520225 44.711524,55.197469 42.0767794,55.8414003 L34.4333072,57.7065284 C33.0865428,58.0353122 31.7397784,58.3625808 30.3945212,58.6928797 C30.1963125,58.7413639 29.9830308,58.753485 29.7720101,58.914089 L29.9521313,59.2587817 C31.0803386,61.217848 32.2085458,63.1761568 33.3397677,65.133708 C34.6202113,67.3503468 35.9014086,69.5662281 37.1856204,71.7805943 C38.597952,74.2146547 40.0140518,76.6471999 41.4286444,79.0805027 C42.2418278,80.4782125 43.0497357,81.8774373 43.869702,83.2713592 C44.7808593,84.8198247 45.6950313,86.3652598 46.6227688,87.9038769 C46.900864,88.3637196 47.2166415,88.803108 47.5346798,89.2364359 C47.7479615,89.5258262 48.0117374,89.7727928 48.322993,89.9614268 C48.6440459,90.1561214 48.9899692,90.2174842 49.3547336,90.1349095 C49.543145,90.0917282 49.7277881,90.0296078 49.9101703,89.9659722 L50.5809148,89.7159754 C53.0204651,88.8773495 55.4592618,88.0387237 57.8995658,87.2031281 C59.8032742,86.5516211 61.7092436,85.9031444 63.6144593,85.2554253 C65.5053557,84.6107364 67.3977595,83.9690778 69.2894096,83.3274191 L74.9221557,81.4153219 C76.8424443,80.7630574 78.7619793,80.1107928 80.6815143,79.4570132 C83.03741,78.6532354 85.392552,77.8464273 87.749955,77.0441646 C90.0221961,76.2714471 92.296698,75.5032749 94.5696927,74.7320724 C94.7091171,74.6851033 94.8628608,74.6654066 94.9781686,74.5116206 L94.9924878,74.1790491 C94.9932415,69.4404721 94.9917342,64.7011376 94.9970097,59.9625607 C94.9970097,59.7095336 94.9299353,59.5049907 94.7792062,59.3012054 C94.0647503,58.3398538 93.3646136,57.3686539 92.6599551,56.4012418 Z M92.2688132,11.7518018 C91.739754,11.0783254 91.065995,10.8646918 90.2399996,11.0813557 C89.8805107,11.1760515 89.5112244,11.2358992 89.1449527,11.3033226 C87.9436419,11.524532 86.7408237,11.7419535 85.5395129,11.9608901 C83.7805044,12.2820982 82.0222495,12.6063366 80.263241,12.9245144 C78.8705042,13.1760264 77.4770138,13.4237506 76.0835233,13.669202 L70.4929814,14.652523 C70.2585976,14.6934316 70.0219529,14.7343402 69.7958593,14.8070665 C69.4665162,14.9131258 69.3715569,15.120699 69.522286,15.4320587 C69.6451302,15.686601 69.7981202,15.9297797 69.9639222,16.1585647 C71.1200144,17.7600598 72.281382,19.357767 73.4427497,20.9562318 C75.0434926,23.1599921 76.6449892,25.3629947 78.2464858,27.5652398 C79.6015403,29.4288528 80.9581022,31.2924658 82.3139103,33.1553212 C83.379565,34.6189392 84.4452197,36.0825572 85.5123816,37.5454177 L85.7226487,37.8014751 L94.9706321,35.5037766 L94.9924878,35.0219645 C94.9932415,28.5743181 94.9917342,22.1266717 94.9970097,15.6782677 C94.9970097,15.3934228 94.928428,15.1646378 94.749814,14.9388831 C93.9720519,13.9517742 93.208609,12.9533019 92.439137,11.959375 L92.2688132,11.7518018 Z M94.7565968,42.9945917 C93.3578308,43.3324663 91.9537894,43.6536744 90.5211093,44.0347302 C90.6725921,44.3051814 94.6020995,49.6369327 94.8304541,49.8899598 L94.9736467,49.9695043 L94.9894732,49.6445083 L94.9902269,47.3998395 C94.9909805,46.0975831 94.9939951,44.7953267 94.9909805,43.4930703 C94.9909805,43.334739 95.0354456,43.1642866 94.9269207,43.0036825 L94.7565968,42.9945917 Z" id="Shape"></path>
        </g>
    </g>
</svg>