<?xml version="1.0" encoding="UTF-8"?>
<svg width="120px" height="120px" viewBox="0 0 120 120" version="1.1" xmlns="http://www.w3.org/2000/svg" xmlns:xlink="http://www.w3.org/1999/xlink">
    <g id="mysql" stroke="none" stroke-width="1" fill="none" fill-rule="evenodd">
        <g id="mysql-plain" transform="translate(12.000000, 13.000000)" fill="#FFB944" fill-rule="nonzero">
            <path d="M94.8414232,92.7507597 L92.8500718,90.7978772 C90.9630075,88.2638255 88.5354771,86.037678 85.9876739,84.189483 C83.9559778,82.7146218 79.3947478,80.7224815 78.5467488,78.332375 L78.3906987,78.1822717 C79.8316881,78.017543 81.5139842,77.4910268 82.8438355,77.1300091 C85.0772548,76.5249773 86.9209296,76.6812387 89.227426,76.0792859 C90.2672525,75.7790793 91.4342027,75.478103 92.1954226,75.1778963 L92.1954226,74.5774831 C91.4342027,73.3681893 90.3479418,71.7670874 89.0767045,70.6724879 C85.7509345,67.8089787 82.1945148,64.9477788 78.4569248,62.5615211 C76.3841229,61.2390725 73.8583951,60.37925 71.6622755,59.2577089 C70.9231309,58.8797564 69.6435202,58.6834675 69.154817,58.0553429 C68.0000463,56.5681655 67.3826969,54.6822522 66.4920695,52.9495212 C64.6278419,49.3185608 62.800914,45.3535242 61.1490667,41.5332027 C60.0224611,38.928333 59.2894063,36.3604118 57.8841943,34.0234188 C51.1397854,22.8103171 43.8815531,16.0433522 32.6368119,9.39108157 C30.2427751,7.9762617 27.3623188,7.41818531 24.317439,6.6869128 C22.6853834,6.58761369 21.0510441,6.48677506 19.4174661,6.38593643 C18.4195067,5.96564717 17.3819639,4.73172103 16.4471858,4.13284733 C12.7202529,1.75274774 3.16465878,-3.42389189 0.405236432,3.3823308 C-1.33719605,7.67836437 3.00860869,11.8689408 4.56301984,14.0465933 C5.65537048,15.5722587 7.05220911,17.2849759 7.83093712,19.0023117 C8.3447606,20.1315504 8.43230089,21.2638681 8.87152481,22.4577667 C9.95093471,25.3997915 10.8895189,28.6004558 12.2871188,31.3184803 C12.9927697,32.6948122 13.7707365,34.1435015 14.6636475,35.3735788 C15.2102034,36.1287139 16.1480264,36.4612505 16.2964643,37.6266679 C15.3799554,38.9244842 15.3274313,40.9397173 14.8120854,42.5839258 C12.4903645,49.9851734 13.3672899,59.1853514 16.7433004,64.6629674 C17.7785595,66.3456639 20.2190307,69.951992 23.5752495,68.5679626 C26.5105137,67.3594385 26.0309451,63.6122442 26.8705707,60.3068925 C27.0601145,59.5586852 26.729745,59.0075367 27.490965,58.5048831 L27.490965,58.6549864 C28.2521849,60.4569958 29.0971391,62.259775 29.9892889,64.0617844 C31.9684608,67.2847718 35.2333332,70.6524741 38.208942,72.9248072 C39.7519349,74.1033106 41.1929242,76.140097 42.7153641,76.8298025 L42.7153641,76.7520566 L42.8835938,76.7520566 C42.4976552,75.9822961 41.8924854,75.8537461 41.3992148,75.3634086 C40.236832,74.2118469 38.9435193,72.7600785 37.9836209,71.4399392 C35.2767227,67.724305 32.8849696,63.648423 30.7055969,59.41474 C29.664248,57.3933488 28.7591574,55.158734 27.882232,53.1019338 C27.5450116,52.3090805 27.5488177,51.1067145 26.843928,50.6964321 C25.8825072,52.2036233 24.4673993,53.4213844 23.7236874,55.2018406 C22.5354231,58.0468755 22.3824178,61.516956 21.9416715,65.114047 C21.680573,65.2079578 21.7970397,65.1432979 21.6440345,65.2633806 C19.5750386,64.7591874 18.8488348,62.6061672 18.0792414,60.7579722 C16.1343244,56.0855257 15.7735062,48.5626559 17.4847286,43.1851088 C17.9277586,41.792612 19.9290059,37.411135 19.1183067,36.1248651 C18.7316069,34.8432138 17.4558023,34.1003949 16.7425392,33.1204897 C15.8587628,31.9088866 14.9772701,30.3139428 14.3652492,28.9145181 C12.7735383,25.272781 12.0313489,21.1830433 10.3551425,17.5005089 C9.55357789,15.7400665 8.19936758,13.9580709 7.08722522,12.3939174 C5.85633255,10.6596469 4.47700199,9.38261421 3.52167094,7.28655626 C3.18292806,6.54142806 2.72162876,5.34829922 3.22479516,4.58238748 C3.38465135,4.06587816 3.61073368,3.85034521 4.11618373,3.68176765 C4.97864594,3.0097667 7.37648881,3.90499821 8.27472836,4.28141111 C10.6565856,5.28209981 12.6448921,6.20581246 14.6628862,7.55751197 C15.6303968,8.20718986 16.6108481,9.01235939 17.7816044,9.78211993 L19.1183067,9.78211993 C21.2093779,9.78211993 23.5516517,9.96070437 25.5057033,10.5611176 C28.9578358,11.6226174 32.052195,13.2876094 34.8626191,15.0819212 C43.4232987,20.5487606 50.4227162,28.3371977 55.211551,37.6189703 C55.9819056,39.1138453 56.3153199,40.5432906 56.9935669,42.1282276 C58.3622404,45.3250431 60.0871648,48.6157694 61.4489873,51.7417669 C62.8085262,54.8616064 64.1330489,58.0091573 66.0543681,60.6047898 C67.0645069,61.9688055 70.964998,62.7016175 72.7378793,63.4598316 C73.9809515,63.9901967 76.0172149,64.5444242 77.1940609,65.2610713 C79.4419435,66.6327846 81.6197938,68.2662165 83.7298955,69.7680193 C84.7834239,70.517766 88.0231761,72.1650536 88.1853159,73.5229112 C82.9610633,73.3781962 78.9715095,73.8708429 75.5604829,75.3249206 C74.5914499,75.738282 73.0446509,75.7498284 72.8863172,76.9775965 C73.4191712,77.541831 73.5021441,78.3854885 73.9253824,79.0798125 C74.7391266,80.4114983 76.114651,82.1988822 77.3417376,83.134911 C78.6830072,84.1586926 80.0638602,85.2525223 81.5010435,86.1385167 C84.0579813,87.7142165 86.9110337,88.6148363 89.372819,90.1936152 C90.8237043,91.1250254 92.3857276,92.2973707 93.7993131,93.3473241 C94.4996355,93.8669125 94.4775601,94.6743913 96,95 L96,94.8506665 C95.2395413,94.2387068 95.2798859,93.3935098 94.8414232,92.7507597 Z M21.7924724,16.2996824 C20.7031666,16.2788989 19.8787654,16.4205348 19.1175454,16.5991193 L19.1175454,16.7115043 L19.268267,16.7115043 C19.7881802,17.4812648 20.7054503,18.5050464 21.3471587,19.4349171 L22.8330601,22.5970934 L22.9799755,22.4531482 C23.9002904,21.7965424 24.3220063,20.7512076 24.3166778,19.1501057 C23.9490085,18.7582976 23.8934395,18.2679601 23.5752495,17.7999457 C23.1504888,17.1772094 22.32761,16.8238893 21.7924724,16.2996824 Z" id="Shape"></path>
        </g>
    </g>
</svg>