<?xml version="1.0" encoding="UTF-8"?>
<svg width="120px" height="120px" viewBox="0 0 120 120" version="1.1" xmlns="http://www.w3.org/2000/svg" xmlns:xlink="http://www.w3.org/1999/xlink">
    <g id="nginx" stroke="none" stroke-width="1" fill="none" fill-rule="evenodd">
        <g id="nginx-original" transform="translate(11.000000, 50.000000)" fill="#FFB944" fill-rule="nonzero">
            <path d="M18.3615707,1.68921481e-14 C17.1895555,1.68921481e-14 16.4082121,0.950943396 16.4082121,2.13962264 L16.4082121,13.3132075 L3.9848515,0.633962264 C3.35977676,1.68921481e-14 2.26589595,-0.158490566 1.48455252,0.158490566 C0.703209089,0.475471698 0,1.26792453 0,2.13962264 L0,18.5433962 C0,19.7320755 1.17201515,20.6830189 2.3440303,20.6830189 C3.51604545,20.6830189 4.68806059,19.7320755 4.68806059,18.5433962 L4.68806059,7.36981132 L17.2676899,20.0490566 C17.6583616,20.445283 18.205302,20.6830189 18.7522424,20.6830189 C18.9866454,20.6830189 19.0647797,20.6037736 19.2991828,20.5245283 C20.0805262,20.2075472 20.3149292,19.4150943 20.3149292,18.5433962 L20.3149292,2.21886792 C20.3149292,1.03018868 19.5335858,0 18.3615707,0 Z M33.7540363,9.3509434 C32.6601555,9.3509434 31.644409,10.4603774 31.644409,11.5698113 C31.644409,12.6792453 32.6601555,13.7886792 33.7540363,13.7886792 L38.9109029,14.1056604 L37.7388878,17.0377358 L31.0974686,17.0377358 L27.8158262,10.7773585 L31.1756029,4.35849057 L38.2858282,4.35849057 L39.9266494,7.52830189 L44.2240383,7.52830189 L41.4112019,1.26792453 L40.7861272,0.396226415 L28.5971696,0.396226415 L28.0502292,1.34716981 L23.440303,9.50943396 L22.8933626,10.5396226 L23.440303,11.5698113 L27.9720949,19.7320755 L28.5971696,21 L40.3954555,21 L40.9423959,19.6528302 L44.3021726,12.5207547 L45.7867251,9.11320755 L42.348814,9.11320755 L33.7540363,9.3509434 Z M50.0059797,2.13162821e-14 C48.9120989,2.13162821e-14 47.6619494,1.03018868 47.6619494,2.13962264 L47.6619494,7.52830189 L52.35001,7.52830189 L52.35001,2.21886792 C52.35001,1.03018868 51.0998605,2.13162821e-14 50.0059797,2.13162821e-14 Z M73.75882,0.237735849 C72.9774766,-0.079245283 71.8835958,0.079245283 71.3366554,0.713207547 L58.6007574,13.3924528 L58.6007574,2.21886792 C58.6007574,1.03018868 57.819414,0.079245283 56.6473988,0.079245283 C55.4753837,0.079245283 54.6940403,1.03018868 54.6940403,2.21886792 L54.6940403,18.6226415 C54.6940403,19.4943396 55.2409807,20.2867925 56.0223241,20.6037736 C56.2567271,20.6830189 56.5692645,20.7622642 56.8036675,20.7622642 C57.3506079,20.7622642 58.053817,20.5245283 58.4444887,20.1283019 L71.1022523,7.4490566 L71.1022523,18.6226415 C71.1022523,19.8113208 71.8835958,20.7622642 73.0556109,20.7622642 C74.2276261,20.7622642 75.0089695,19.8113208 75.0089695,18.6226415 L75.0089695,2.21886792 C75.0089695,1.34716981 74.5401634,0.554716981 73.75882,0.237735849 Z M90.7921068,10.3811321 L97.3553917,3.7245283 C98.2148694,2.85283019 98.2148694,1.50566038 97.3553917,0.713207547 C96.4959139,-0.158490566 95.1676301,-0.158490566 94.3862866,0.713207547 L87.8230018,7.36981132 L81.259717,0.713207547 C80.4002392,-0.158490566 79.0719554,-0.158490566 78.2906119,0.713207547 C77.4311341,1.58490566 77.4311341,2.93207547 78.2906119,3.7245283 L84.8538968,10.3811321 L78.2906119,17.0377358 C77.4311341,17.909434 77.4311341,19.2566038 78.2906119,20.0490566 C78.6812836,20.445283 79.228224,20.6830189 79.7751644,20.6830189 C80.3221048,20.6830189 80.8690452,20.445283 81.259717,20.0490566 L87.8230018,13.3924528 L94.3862866,20.0490566 C94.7769583,20.445283 95.3238987,20.6830189 95.8708391,20.6830189 C96.4177795,20.6830189 96.96472,20.445283 97.3553917,20.0490566 C98.2148694,19.1773585 98.2148694,17.8301887 97.3553917,17.0377358 L90.7921068,10.3811321 Z M47.6619494,18.5433962 C47.6619494,19.6528302 48.8339645,20.6830189 50.0059797,20.6830189 C51.0998605,20.6830189 52.35001,19.6528302 52.35001,18.5433962 L52.35001,9.11320755 L47.6619494,9.11320755 L47.6619494,18.5433962 Z" id="Shape"></path>
        </g>
    </g>
</svg>