<?xml version="1.0" encoding="UTF-8"?>
<svg width="120px" height="120px" viewBox="0 0 120 120" version="1.1" xmlns="http://www.w3.org/2000/svg" xmlns:xlink="http://www.w3.org/1999/xlink">
    <g id="php" stroke="none" stroke-width="1" fill="none" fill-rule="evenodd">
        <g id="php-plain" transform="translate(7.000000, 33.000000)" fill="#FFB944" fill-rule="nonzero">
            <path d="M53,0 C23.7300226,0 0,12.088563 0,27 C0,41.911437 23.7300226,54 53,54 C82.2699774,54 106,41.911437 106,27 C106,12.088563 82.2699774,0 53,0 Z M38.8356559,31.9390588 C37.6006093,33.1024706 36.2291824,33.5826765 34.7188339,34.0773824 C33.2084854,34.5729412 31.2864547,34.4705882 28.9493535,34.4705882 L23.6525453,34.4705882 L22.1845509,43 L16,43 L21.5187439,14 L33.4117852,14 C36.9898626,14 39.5997245,15.0363235 41.2405237,16.9272941 C42.8813229,18.8182647 43.3743251,21.5024706 42.7203772,24.8912059 C42.4501578,26.2874706 41.9952744,27.5856471 41.3531857,28.7422353 C40.7102499,29.8996765 39.870791,30.9803529 38.8356559,31.9390588 Z M57.6660837,34 L60.1903559,21.7648485 C60.4777426,20.3326061 60.3726011,19.2686061 59.8740552,18.7484848 C59.3746331,18.2275152 58.3127039,17.8787879 56.6891439,17.8787879 L51.6160665,17.8787879 L48.347042,34 L42,34 L47.7083073,6 L54.0553493,6 L52.537807,13.6363636 L58.1917912,13.6363636 C61.7499548,13.6363636 64.2032565,14.3278788 65.5534486,15.5293333 C66.9036407,16.7307879 67.3084355,18.3768485 66.7687091,21.0682424 L64.11301,34 L57.6660837,34 Z M92.7204863,24.9364118 C92.4510959,26.3326765 91.9953346,27.6086765 91.3540497,28.7644118 C90.7119177,29.9218529 89.8732492,30.9803529 88.8371971,31.9390588 C87.6020671,33.1024706 86.2297005,33.5826765 84.7200972,34.0773824 C83.210494,34.5729412 81.2866393,34.4705882 78.9493803,34.4705882 L73.6522146,34.4705882 L72.1849683,43 L66,43 L71.5182692,14 L83.4129604,14 C86.9912793,14 89.6013173,15.0363235 91.2413801,16.9272941 C92.8805958,18.8182647 93.3744783,21.5485294 92.7204863,24.9364118 Z M80.0821302,19 L75.4990902,19 L73,31 L77.0707586,31 C79.7668801,31 81.7775159,30.7514286 83.0971675,29.8 C84.4186519,28.8502857 85.3085003,27.376 85.7712948,25.1534286 C86.2148443,23.0182857 86.0132309,21.3528571 85.1664544,20.4751429 C84.3187616,19.5974286 82.6242923,19 80.0821302,19 Z M31.0835459,19 L26.4992664,19 L24,31 L28.0701291,31 C30.7673571,31 32.7772182,30.7514286 34.0978793,29.8 C35.4185404,28.8502857 36.309368,27.376 36.7712786,25.1534286 C37.2148595,23.0182857 37.0132318,21.3528571 36.1663957,20.4751429 C35.3195596,19.5974286 33.6258873,19 31.0835459,19 Z" id="Shape"></path>
        </g>
    </g>
</svg>