<?xml version="1.0" encoding="UTF-8"?>
<svg width="120px" height="120px" viewBox="0 0 120 120" version="1.1" xmlns="http://www.w3.org/2000/svg" xmlns:xlink="http://www.w3.org/1999/xlink">
    <g id="react" stroke="none" stroke-width="1" fill="none" fill-rule="evenodd">
        <g id="react-original" transform="translate(7.000000, 13.000000)" fill="#FFB944">
            <circle id="Oval" cx="52.5" cy="47.5" r="9.5"></circle>
            <path d="M88.8138978,31.5250447 C86.9688498,30.8452594 85.0399361,30.1654741 83.0271565,29.5706619 C83.5303514,27.5313059 83.9496805,25.4919499 84.2851438,23.5375671 C86.0463259,12.3211091 84.1174121,4.41860465 78.75,1.35957066 C77.1565495,0.424865832 75.3953674,0 73.3825879,0 C67.5119808,0 60.0479233,4.41860465 52.5,11.8112701 C44.9520767,4.41860465 37.4880192,0 31.6174121,0 C29.6046326,0 27.8434505,0.424865832 26.25,1.35957066 C20.8825879,4.50357782 18.9536741,12.4060823 20.7148562,23.5375671 C21.0503195,25.4919499 21.4696486,27.5313059 21.9728435,29.5706619 C19.9600639,30.1654741 18.0311502,30.7602862 16.1861022,31.5250447 C5.7028754,35.6037567 0,41.2119857 0,47.5 C0,53.7880143 5.78674121,59.3962433 16.1861022,63.4749553 C18.0311502,64.1547406 19.9600639,64.8345259 21.9728435,65.4293381 C21.4696486,67.4686941 21.0503195,69.5080501 20.7148562,71.4624329 C18.9536741,82.6788909 20.8825879,90.5813953 26.25,93.6404293 C27.8434505,94.5751342 29.6046326,95 31.6174121,95 C37.571885,95 45.0359425,90.5813953 52.5,83.1887299 C60.0479233,90.5813953 67.5119808,95 73.3825879,95 C75.3953674,95 77.1565495,94.5751342 78.75,93.6404293 C84.1174121,90.4964222 86.0463259,82.5939177 84.2851438,71.4624329 C83.9496805,69.5080501 83.5303514,67.4686941 83.0271565,65.4293381 C85.0399361,64.8345259 86.9688498,64.2397138 88.8138978,63.4749553 C99.2971246,59.3962433 105,53.7880143 105,47.5 C105,41.2119857 99.2971246,35.6037567 88.8138978,31.5250447 Z M76.4017572,5.60822898 C79.8402556,7.64758497 81.014377,13.9355993 79.5886581,22.8577818 C79.3370607,24.6422182 78.9177316,26.5116279 78.4145367,28.4660107 C74.0535144,27.4463327 69.4408946,26.7665474 64.5766773,26.3416816 C61.7252396,22.2629696 58.7899361,18.6091234 55.8546326,15.2951699 C62.0607029,9.0921288 68.350639,4.84347048 73.4664537,4.84347048 C74.5567093,4.84347048 75.563099,5.09838998 76.4017572,5.60822898 Z M67.0087859,55.9973166 C65.4992013,58.716458 63.7380192,61.4355993 61.8929712,64.1547406 C58.7899361,64.4096601 55.686901,64.4946333 52.5,64.4946333 C49.2292332,64.4946333 46.1261981,64.4096601 43.1070288,64.1547406 C41.2619808,61.4355993 39.5846645,58.716458 38.0750799,55.9973166 C36.4816294,53.1932021 34.9720447,50.3041145 33.6301917,47.5 C34.9720447,44.6958855 36.4816294,41.8067979 38.0750799,39.0026834 C39.5846645,36.283542 41.3458466,33.5644007 43.1908946,30.8452594 C46.2939297,30.5903399 49.3969649,30.5053667 52.5838658,30.5053667 C55.8546326,30.5053667 58.9576677,30.5903399 61.9768371,30.8452594 C63.821885,33.5644007 65.4992013,36.283542 67.0087859,39.0026834 C68.6022364,41.8067979 70.1118211,44.6958855 71.4536741,47.5 C70.0279553,50.3041145 68.6022364,53.108229 67.0087859,55.9973166 Z M73.9696486,53.1932021 C75.2276358,56.167263 76.2340256,59.0563506 77.1565495,61.9454383 C74.3051118,62.6252236 71.2859425,63.1350626 68.0990415,63.5599284 C69.1054313,61.9454383 70.1956869,60.245975 71.1182109,58.4615385 C72.1246006,56.677102 73.0471246,54.8926655 73.9696486,53.1932021 Z M52.5,76.2209302 C50.4872204,74.0116279 48.5583067,71.6323792 46.7132588,69.1681574 C48.6421725,69.2531306 50.5710863,69.3381038 52.5,69.3381038 C54.4289137,69.3381038 56.3578275,69.2531306 58.2867412,69.1681574 C56.4416933,71.6323792 54.5127796,74.0116279 52.5,76.2209302 Z M36.9009585,63.4749553 C33.7140575,63.0500894 30.6948882,62.5402504 27.8434505,61.8604651 C28.7659744,59.0563506 29.7723642,56.0822898 31.0303514,53.108229 C31.9528754,54.8076923 32.8753994,56.5921288 33.8817891,58.2915921 C34.8881789,60.1610018 35.8945687,61.7754919 36.9009585,63.4749553 Z M31.0303514,41.8067979 C29.7723642,38.832737 28.7659744,35.9436494 27.8434505,33.0545617 C30.6948882,32.3747764 33.7140575,31.8649374 36.9009585,31.4400716 C35.8945687,33.0545617 34.8043131,34.754025 33.8817891,36.5384615 C32.8753994,38.322898 31.9528754,40.1073345 31.0303514,41.8067979 Z M52.5,18.7790698 C54.5127796,20.9883721 56.4416933,23.3676208 58.2867412,25.8318426 C56.3578275,25.7468694 54.4289137,25.6618962 52.5,25.6618962 C50.5710863,25.6618962 48.6421725,25.7468694 46.7132588,25.8318426 C48.5583067,23.3676208 50.4872204,20.9883721 52.5,18.7790698 Z M71.1182109,36.6234347 L68.0990415,31.5250447 C71.2859425,31.9499106 74.3051118,32.4597496 77.1565495,33.1395349 C76.2340256,35.9436494 75.2276358,38.9177102 73.9696486,41.891771 C73.0471246,40.1073345 72.1246006,38.322898 71.1182109,36.6234347 Z M25.4113419,22.8577818 C23.985623,13.9355993 25.1597444,7.64758497 28.5982428,5.60822898 C29.436901,5.09838998 30.4432907,4.84347048 31.5335463,4.84347048 C36.5654952,4.84347048 42.8554313,9.00715564 49.1453674,15.2951699 C46.2100639,18.5241503 43.2747604,22.2629696 40.4233227,26.3416816 C35.5591054,26.7665474 30.9464856,27.5313059 26.5854633,28.4660107 C26.0822684,26.5116279 25.7468051,24.6422182 25.4113419,22.8577818 Z M4.69648562,47.5 C4.69648562,43.5062612 9.47683706,39.2576029 17.8634185,36.1135957 C19.5407348,35.4338104 21.3857827,34.8389982 23.2308307,34.3291592 C24.5726837,38.5778175 26.25,43.0813953 28.2627796,47.5849732 C26.25,52.088551 24.4888179,56.5071556 23.2308307,60.755814 C11.6573482,57.3568873 4.69648562,52.2584973 4.69648562,47.5 Z M28.5982428,89.391771 C25.1597444,87.352415 23.985623,81.0644007 25.4113419,72.1422182 C25.6629393,70.3577818 26.0822684,68.4883721 26.5854633,66.5339893 C30.9464856,67.5536673 35.5591054,68.2334526 40.4233227,68.6583184 C43.2747604,72.7370304 46.2100639,76.3908766 49.1453674,79.7048301 C42.9392971,85.9078712 36.649361,90.1565295 31.5335463,90.1565295 C30.4432907,90.1565295 29.436901,89.90161 28.5982428,89.391771 Z M79.5886581,72.1422182 C81.014377,81.0644007 79.8402556,87.352415 76.4017572,89.391771 C75.563099,89.90161 74.5567093,90.1565295 73.4664537,90.1565295 C68.4345048,90.1565295 62.1445687,85.9928444 55.8546326,79.7048301 C58.7899361,76.4758497 61.7252396,72.7370304 64.5766773,68.6583184 C69.4408946,68.2334526 74.0535144,67.4686941 78.4145367,66.5339893 C78.9177316,68.4883721 79.2531949,70.3577818 79.5886581,72.1422182 Z M87.1365815,58.8864043 C85.4592652,59.5661896 83.6142173,60.1610018 81.7691693,60.6708408 C80.4273163,56.4221825 78.75,51.9186047 76.7372204,47.4150268 C78.75,42.911449 80.5111821,38.4928444 81.7691693,34.244186 C93.3426518,37.6431127 100.303514,42.7415027 100.303514,47.5 C100.303514,51.4937388 95.4392971,55.7423971 87.1365815,58.8864043 Z" id="Shape" fill-rule="nonzero"></path>
        </g>
    </g>
</svg>