<?xml version="1.0" encoding="UTF-8"?>
<svg width="120px" height="120px" viewBox="0 0 120 120" version="1.1" xmlns="http://www.w3.org/2000/svg" xmlns:xlink="http://www.w3.org/1999/xlink">
    <g id="scss" stroke="none" stroke-width="1" fill="none" fill-rule="evenodd">
        <path d="M8,54.1080701 C8,54.6845328 8.17146407,55.0650146 8.26755022,55.4348363 C8.89376683,57.8399076 10.2398012,59.9038572 11.8368192,61.786586 C14.1114102,64.4696386 16.8970801,66.6295287 19.750673,68.6606782 C22.2257196,70.4220464 24.7512943,72.1440544 27.2362808,73.8923026 C27.6628702,74.192424 28.0662663,74.5376456 28.5293021,74.9058274 C28.130876,75.1190283 27.7995444,75.3068092 27.4549596,75.47983 C24.1756057,77.1263977 21.0205011,78.9722264 18.1122386,81.2083768 C16.3594947,82.5564631 14.6647339,83.9890098 13.4677987,85.8610786 C11.5419341,88.8721326 10.8602195,92.0799876 12.2957134,95.5051437 C12.7148478,96.5055483 13.3543177,97.3698324 14.2563678,98.0086154 C14.5487679,98.2152563 14.8767861,98.4202573 15.2188859,98.5006177 C16.0952578,98.7047986 16.9881963,98.8384592 17.8753365,99 L20.3876579,98.99836 C23.1658729,98.7531788 25.6947608,97.8109944 27.9801201,96.2497071 C31.5518741,93.8093757 33.9581694,90.5375604 34.9927521,86.3383208 C35.7448747,83.2862665 35.7755229,80.2309322 34.889211,77.192818 C34.8072065,76.9107367 34.7036654,76.6343954 34.5959826,76.3613342 C34.4882999,76.0882729 34.3615655,75.8225916 34.2124663,75.48229 L39.9080555,72.2399949 L39.9933734,72.3121552 C39.8898323,72.6475368 39.7796645,72.9820984 39.6860634,73.3207599 C39.0093187,75.7676514 38.5595361,78.257183 38.7210603,80.7967349 C38.8933527,83.5027475 39.6562435,86.0357394 41.2565749,88.29649 C42.5504245,90.1250985 45.6334645,90.1931588 47.0084904,88.3579902 C47.4963761,87.7060872 47.9693518,87.024664 48.3247049,86.2973206 C49.2532615,84.3990117 50.1130669,82.4670827 51.0002071,80.5482737 L51.1551046,80.1973121 C51.0913233,81.1058763 51.0167737,81.9037401 50.9828122,82.7024238 C50.9297991,83.9496496 51.0035204,85.1894954 51.4342514,86.376041 C51.8028577,87.3912057 52.4299027,88.1497093 53.604473,88.2833699 C54.407952,88.3743903 55.0482502,88.0103086 55.6388486,87.5486465 C56.561607,86.8278631 57.3112446,85.9373389 57.8678815,84.9254542 C59.4425347,82.0628208 61.0594326,79.2174075 62.4866432,76.2826138 C64.0306482,73.1083789 65.3808242,69.8414837 66.8146614,66.6131286 L67.0515635,66.0407659 C67.39035,67.3585121 67.6264237,68.6491981 68.0612963,69.8710038 C68.5665769,71.2887904 69.1919652,72.6729569 69.8728515,74.0185832 C70.1950714,74.6540862 70.1577966,75.0665481 69.7113274,75.5995506 C67.8426175,77.829961 66.0062125,80.0874316 64.1681508,82.3424421 C63.7614413,82.8401844 63.3563885,83.3469468 63.017602,83.8906094 C62.8130048,84.2210709 62.6771588,84.6236928 62.6200041,85.0090946 C62.5098364,85.745458 62.9695589,86.4555814 63.7655829,86.6253221 C64.4928557,86.7803029 65.2673431,86.8377031 66.0086975,86.7835829 C68.5740319,86.596622 70.9032926,85.7052778 72.9625181,84.1948308 C75.6305653,82.2383016 76.4870574,79.5683692 75.8409609,76.4039744 C75.6661835,75.5454303 75.3572168,74.7106664 75.0565334,73.8832826 C74.9215158,73.5101808 74.9124042,73.2485996 75.1584179,72.900918 C77.2913647,69.8857639 79.1136881,66.6869289 80.808449,63.4142936 C80.8755436,63.285553 80.9442949,63.1568124 81.0619176,63.0190518 C81.6110996,65.848065 82.4377718,68.5745778 83.9188238,71.0485293 C83.1633879,71.7693127 82.4154069,72.4228557 81.7386622,73.1428191 C80.2484987,74.7287065 78.9563057,76.4507146 78.282046,78.5507444 C77.9921309,79.4560286 77.7693104,80.3760729 77.8985297,81.3428574 C78.0989853,82.8442845 79.3414786,83.820089 80.8332988,83.4781474 C84.0256782,82.746704 86.7815283,81.257577 88.7951957,78.6196247 C90.1503417,76.8434964 90.2737627,74.8623671 89.7063574,72.7869374 C89.5506316,72.2227748 89.3659143,71.6676322 89.1671153,71.0206492 C89.9548561,70.7787481 90.7227169,70.4884667 91.5170843,70.3088859 C95.6413336,69.3773615 99.7208532,69.5397223 103.695175,71.0140892 C106.015324,71.8750932 107.889832,73.3158399 109.00145,75.5823305 C110.359081,78.3531235 109.608615,80.9820558 106.970387,82.7335839 C106.724374,82.8967647 106.442742,83.0255053 106.238973,83.2296863 C106.113895,83.3551469 106.038517,83.606068 106.069165,83.7790888 C106.08656,83.8799493 106.355767,84.0062299 106.510665,84.0045899 C107.377925,83.9980299 108.081176,83.5478478 108.756264,83.0853656 C110.447712,81.9267002 111.681922,80.3678729 111.947815,78.3154033 L112,78.1612426 L111.936219,76.8246363 C111.91054,76.747556 111.95527,76.6712956 111.949472,76.6130753 C111.589977,73.6241614 109.977221,71.3060105 107.631394,69.488882 C104.914475,67.3855722 101.706357,66.5196481 98.3135225,66.3827075 C95.5485608,66.271187 92.8308138,66.6779089 90.2248913,67.6151733 C89.4818803,67.8816745 88.745496,68.197376 87.9983433,68.4950374 C87.8981156,68.3154565 87.7904328,68.1432557 87.7018016,67.9653149 C86.9347691,66.4105876 86.0053841,64.9247407 85.7999586,63.1420524 C85.6541727,61.8759664 85.4752537,60.6115205 85.7792504,59.3593747 C86.0716504,58.154789 86.4526817,56.9707035 86.8113481,55.7825179 C86.9960654,55.1707951 86.8660178,54.8280335 86.2762477,54.5525122 C86.0708221,54.4565717 85.8471733,54.3729314 85.6251812,54.3409512 C84.1756057,54.1326702 82.7459101,54.2515708 81.3418927,54.6558327 C80.8448954,54.7993333 80.483744,55.0748546 80.3735763,55.6193372 C80.3106233,55.9317586 80.1822323,56.23106 80.0927728,56.5393815 C79.7258232,57.8210475 79.4657279,59.1273136 78.8726444,60.3482993 C77.3866225,63.4110136 75.690205,66.3581074 73.9540277,69.2838811 C73.7659971,69.5995825 73.5680265,69.909544 73.3311245,70.2924858 C72.7214744,69.0296799 72.0712363,67.8964346 71.874094,66.5680284 C71.6512736,65.0657813 71.4756678,63.5659943 71.8533858,62.0752274 C72.1341893,60.9633022 72.501139,59.8718771 72.8390971,58.7747119 C72.9989646,58.2531895 72.9252433,57.9793082 72.4481259,57.7046069 C72.2070822,57.5660263 71.934562,57.4430257 71.6628702,57.4028455 C70.1594533,57.1822645 68.6784013,57.297885 67.2279975,57.7620072 C66.778215,57.9063279 66.5421412,58.1941492 66.4046386,58.6533514 C66.0004142,60.0079977 65.6558294,61.3954442 65.0884241,62.6836702 C62.7906399,67.8988946 60.4265894,73.0870588 58.0650238,78.2744031 C57.5721682,79.3576282 56.9948229,80.4031331 56.4390143,81.457658 C56.2981984,81.7249792 56.0927728,81.9603203 55.9171671,82.2112415 C55.7763512,82.0464207 55.7216815,81.9332602 55.7225098,81.8200997 C55.7266515,81.1534366 55.6463036,80.4670934 55.7746946,79.8225703 C56.1631808,77.8726012 56.6104784,75.9332922 57.0817975,74.0013631 C57.471112,72.4056357 57.9242079,70.8246683 58.3557672,69.2396009 C58.5007248,68.7090584 58.5032098,68.2129561 58.1180369,67.766874 C57.471112,67.0198505 56.1192794,66.8558497 55.317457,67.4314924 L54.9629323,67.6299333 L55.0316836,67.0641307 C55.2006627,65.851345 55.2346241,64.6426594 54.8983226,63.4479138 C54.4791882,61.9587868 53.4056741,61.1018828 51.8451025,61.149443 C51.1178298,61.1715831 50.3541106,61.2945837 49.6806792,61.5569849 C46.8486229,62.6557901 44.6709464,64.6016592 42.8171464,66.9427701 C42.6489957,67.1551511 42.4270035,67.348672 42.1901015,67.4790526 C39.7937461,68.7943388 37.3899358,70.0932249 34.9869538,71.3970309 L32.31228,72.8476177 C31.5949472,72.1702946 30.9430524,71.4675513 30.2033547,70.8714085 C27.944502,69.04772 25.6492027,67.2691316 23.3746117,65.4659432 C21.3584593,63.8677557 19.4052599,62.203148 17.9109546,60.0867181 C16.7993373,58.5123107 16.0828329,56.7894827 16.0140816,54.8427936 C15.9271071,52.362282 16.6378132,50.0957914 17.9134396,47.9859215 C19.5452475,45.2864689 21.7709671,43.1200187 24.2178505,41.1577496 C26.8063781,39.0831399 29.6061296,37.3217716 32.5077656,35.7137441 C36.5674053,33.4644736 40.743011,31.4735043 45.2201284,30.1590381 C49.8107269,28.8109518 54.46842,28.0393282 59.2727273,28.5772508 C61.161317,28.7888117 62.9952371,29.2168537 64.6792297,30.131158 C65.9689377,30.8306213 67.0267136,31.7465656 67.5187409,33.1782923 C68.0041416,34.5870588 67.9892317,36.0146855 67.6529302,37.4455922 C66.9695589,40.3434858 65.3667426,42.7321569 63.3497619,44.8666269 C60.0414164,48.3655833 56.0057983,50.7476944 51.4624146,52.3212818 C48.8407538,53.229026 46.1437151,53.7989287 43.3737834,54.0293497 C41.113274,54.2171306 38.8999793,54.0186897 36.7595776,53.2405061 C35.3423069,52.7247236 34.1080969,51.93588 33.115759,50.7911546 C32.9384966,50.5861536 32.7115345,50.3639326 32.3810313,50.5558135 C32.0571547,50.7444144 32,51.0494558 32.1085111,51.3585973 C32.2899151,51.8719197 32.4572375,52.4065622 32.7396977,52.8657643 C33.4495755,54.0178697 34.4849865,54.8534536 35.624767,55.570137 C37.8140402,56.9485634 40.2609236,57.4118656 42.7980948,57.5192861 C46.6481673,57.6841068 50.4046386,57.1150242 54.1080969,56.0924794 C59.3953199,54.6328726 63.992545,52.0547805 67.6794367,47.9875615 C70.7492234,44.6009457 72.9418099,40.7789078 73.4114724,36.1639262 C73.6409194,33.9113757 73.3965624,31.7047454 72.3313315,29.6498158 C71.1758128,27.4235054 69.3385794,25.7679176 67.1418513,24.6272923 C63.9428453,22.9667845 60.4903707,22 56.9269,22 L53.3568027,22 C49.0412094,22 44.868917,23.2242657 40.8134189,24.6846926 C37.7436322,25.7908777 34.7334852,27.0963238 31.811141,28.5411706 C25.4470905,31.6891653 19.5203976,35.484963 14.652309,40.7042874 C12.2269621,43.3045196 10.1735349,46.173713 8.99233796,49.5521288 C8.64692483,50.5410534 8.31890661,51.6013184 8.07206461,52.6238632 L8,54.1080701 Z M31.1319114,82.1546612 C30.8560779,85.8110583 29.1820253,88.7753722 26.4460551,91.1763434 C24.9070201,92.5260697 23.1418513,93.4871142 21.0859391,93.8249558 C20.3404432,93.9471364 19.5775523,93.9766565 18.8544212,93.6707951 C17.8231518,93.234553 17.592048,92.3284488 17.5721682,91.3633043 C17.54152,89.8249771 18.085732,88.4342506 18.8320563,87.1107644 C19.806171,85.3854763 21.23421,84.0701902 22.7591634,82.8418245 C25.161317,80.9057954 27.7672396,79.2674277 30.4361151,77.7209005 L30.637399,77.6389001 C31.0499068,79.1477072 31.2462207,80.6376542 31.1319114,82.1546612 Z M51.9710085,66.2638069 C51.7763512,67.4314924 51.5328225,68.5999979 51.1882377,69.7316032 C49.9971008,73.6487615 48.4671775,77.4445592 46.8130048,81.1895167 C46.5073514,81.88242 46.0625388,82.5146429 45.6757093,83.171466 C45.6160696,83.2731465 45.5274384,83.3608869 45.4412922,83.4453473 C44.9625181,83.9135695 44.5085939,83.8889694 44.2667219,83.2764265 C43.9850901,82.5646632 43.8119694,81.8028796 43.6628702,81.0492961 C43.5626424,80.5433537 43.5866639,80.0119912 43.5551874,79.4937488 C43.5874922,75.8086516 44.7231311,72.4597559 46.649824,69.3421013 C47.4441913,68.0563353 48.3089667,66.8312496 49.6301512,66.0178058 C50.0360323,65.7677046 50.4916132,65.5668037 50.9513357,65.4388831 C51.6554152,65.2429022 52.0878029,65.5651637 51.9710085,66.2638069 Z M66.1884448,84.1956508 L71.2984055,78.2891632 C71.511286,80.4826734 67.7448747,84.8614939 66.1884448,84.1956508 Z M82.5090081,80.2210922 C82.1478567,80.4260932 81.7544005,80.5736939 81.3841375,80.7631147 C81.045351,80.9369555 80.9335266,80.7614747 80.9235867,80.4728334 C80.91696,80.2768525 80.9459515,80.0718515 81.0006212,79.8816106 C81.6906192,77.4724394 82.9604473,75.4158697 84.8498654,73.7430619 L84.982398,73.6758216 C85.8811348,76.1645332 84.8424104,78.897606 82.5090081,80.2210922 Z" id="Shape" fill="#FFB944"></path>
    </g>
</svg>