<?xml version="1.0" encoding="UTF-8"?>
<svg width="120px" height="120px" viewBox="0 0 120 120" version="1.1" xmlns="http://www.w3.org/2000/svg" xmlns:xlink="http://www.w3.org/1999/xlink">
    <g id="typecript" stroke="none" stroke-width="1" fill="none" fill-rule="evenodd">
        <g id="typescript-plain" transform="translate(13.000000, 13.000000)" fill="#FFB944" fill-rule="nonzero">
            <path d="M0,47.5 L0,91 C2.705415e-16,93.209139 1.790861,95 4,95 L91,95 C93.209139,95 95,93.209139 95,91 L95,4 C95,1.790861 93.209139,-4.05812251e-16 91,0 L4,0 C1.790861,4.05812251e-16 -2.705415e-16,1.790861 0,4 L0,47.5 Z M76.5548,43.7 C78.8301531,44.228025 80.8981724,45.4180617 82.498,47.12 C83.3787297,48.0369014 84.144379,49.0577671 84.778,50.16 C84.778,50.2816 80.674,53.0556 78.1736,54.606 C78.0824,54.6668 77.7176,54.2716 77.3148,53.6712 C76.3869989,52.0702749 74.7026588,51.0573753 72.8536,50.9884 C69.9732,50.7908 68.1188,52.3032 68.134,54.7884 C68.1101825,55.4071513 68.2518528,56.0210559 68.5444,56.5668 C69.1752,57.8816 70.3532,58.6644 74.0468,60.2604 C80.8488,63.1864 83.7596,65.1168 85.5684,67.8604 C87.59,70.9004 88.0384,75.81 86.6704,79.4428 C85.1504,83.3948 81.4264,86.0776 76.1596,86.9668 C73.7540841,87.2423251 71.3235974,87.2167947 68.9244,86.8908 C65.2628447,86.2968156 61.8851767,84.5534172 59.28,81.9128 C58.406,80.9476 56.7036,78.432 56.81,78.2496 C57.0874419,78.043641 57.3795518,77.8582147 57.684,77.6948 L61.18,75.6884 L63.9084,74.1076 L64.4784,74.9512 C65.4403629,76.3272552 66.6645778,77.4998155 68.0808,78.4016 C71.1208,79.9976 75.2704,79.7772 77.3224,77.9304 C78.7441208,76.5339082 78.9647792,74.3209278 77.8468,72.6712 C77.0868,71.6148 75.5668,70.7256 71.3184,68.8712 C66.4164,66.7584 64.3036,65.4512 62.3732,63.3688 C61.1680937,61.9946367 60.2783432,60.3733712 59.7664,58.6188 C59.3845343,56.6142614 59.3280778,54.5612958 59.5992,52.5388 C60.61,47.804 64.1592,44.498 69.3424,43.5176 C71.7428002,43.2205921 74.1742628,43.2872075 76.5548,43.7152 L76.5548,43.7 Z M54.2564,47.6824 L54.2564,51.5736 L41.9216,51.5736 L41.9216,86.7084 L33.174,86.7084 L33.174,51.566 L20.8088,51.566 L20.8088,47.766 C20.7756075,46.4578387 20.811123,45.1488369 20.9152,43.8444 C20.9608,43.7836 28.5152,43.7532 37.6352,43.7684 L54.2108,43.7684 L54.2564,47.6824 Z" id="plain"></path>
        </g>
    </g>
</svg>