<?xml version="1.0" encoding="UTF-8"?>
<svg width="120px" height="120px" viewBox="0 0 120 120" version="1.1" xmlns="http://www.w3.org/2000/svg" xmlns:xlink="http://www.w3.org/1999/xlink">
    <g id="webpack" stroke="none" stroke-width="1" fill="none" fill-rule="evenodd">
        <g id="webpack-plain" transform="translate(17.000000, 13.000000)" fill-rule="nonzero">
            <path d="M83.3498855,73.2103175 L44.6960733,95 L44.6960733,78.0281746 L68.743969,64.8412698 L83.3498855,73.2103175 Z M86,70.8277778 L86,25.2956349 L71.8559606,33.4384921 L71.8559606,62.7 L85.9924282,70.8202381 L86,70.8277778 Z M2.65011446,73.2103175 L41.266068,94.9849206 L41.266068,78.0281746 L17.2106005,64.8412698 L2.65011446,73.2103175 Z M0,70.8277778 L0,25.2956349 L14.1440394,33.4384921 L14.1440394,62.7 L0,70.8277778 Z M1.65821447,22.347619 L41.3039267,0 L41.3039267,16.4063492 L15.9006867,30.3170635 L15.6962493,30.4301587 L1.65821447,22.347619 Z M84.326642,22.347619 L44.6960733,0 L44.6960733,16.4063492 L70.0993133,30.3095238 L70.3037507,30.422619 L84.3417855,22.347619 L84.326642,22.347619 Z" id="Shape" fill="#EEB554"></path>
            <path d="M41.8015165,74 L18,60.9364599 L18,35.0816944 L41.8015165,48.7579425 L41.8015165,74 Z M45.1984835,74 L69,60.9515885 L69,35.0816944 L45.1984835,48.7579425 L45.1984835,74 Z M19.6150758,32.1164902 L43.5,19 L67.3849242,32.1164902 L43.5,45.8532526 L19.6150758,32.1164902 Z" id="Shape" fill="#FFB944"></path>
        </g>
    </g>
</svg>